<svg xmlns="http://www.w3.org/2000/svg" width="740" height="855" viewBox="0 0 592 684"><g fill="#fc0204"><path d="M0-2h268.5c-5.77 4.46-11.59 8.9-17.95 12.5-5.68 3.07-10.68 7.24-15.25 11.75-3.8 4.23-8.15 8-11.26 12.8-3.8 5.2-5.56 11.61-6.07 17.96-.81 6.84 1.84 13.38 3 20.03 1.33 7.22 7.57 12.3 14.02 15 4.61 2.16 9.73 2.69 14.74 3 .07-1.33.13-2.66.19-3.99-4.21-2.54-9.04-3.99-12.88-7.14-2.97-2.35-6.1-4.55-8.67-7.35-2.76-3.12-2.9-7.57-2.98-11.51.56-8.86 1.67-18.25 7.21-25.54 6.69-9.5 18.02-13.57 27.62-19.33 2.76-1.84 5-4.34 7.24-6.75C270.68 6.11 272.23 1.64 275-2h44.47c3.08 15.36 3.65 31.22 8.72 46.15-9.12 3.15-18.12 6.62-27.19 9.89-11.16 3.46-21.89 8.13-32.94 11.94.9 2.23 2.55 3.99 3.99 5.88 3.45 6.29 2.36 15.04 8.72 19.6 3.42-1.14 7.05-1.29 10.51-2.27 8.95-3.21 18.28-5.24 27.14-8.7 5.7-2.27 11.5-4.32 17.47-5.77 3.24 9.47 5.42 19.26 8.69 28.72 3.71 8.57 7.6 17.22 13.34 24.67 2.69 4.2 5.89 8.09 9.76 11.27-17.97 10.03-35.66 20.55-53.5 30.8-9.92 6.78-21.06 11.43-31.33 17.61-14.57 8.83-29.15 17.63-43.82 26.29-6.41 4.25-13.29 7.79-19.39 12.5-1.72 1.02-3.36 2.66-5.44 2.72-3.29-2.57-6.42-5.4-10.31-7.05-3.01 2.2-6.11 4.57-7.76 8.02-3.41 6.51-3.68 13.98-4.78 21.07-2.4 5.04-5.96 9.49-7.9 14.79-4.18 9.14-6.34 18.98-9.28 28.55.01-6.23-.87-12.44-.38-18.67.39-6.74-1.24-13.58 0-20.26 2.93-3.87 6.41-7.62 7.16-12.63 1.44-9.03 2.4-18.13 3.81-27.16.69-4.18 2.47-8.08 4.49-11.78 3.47-6.13 6.38-12.65 10.81-18.19 5.88-7.4 11.24-15.29 14.98-24.02 3.52-6.03 3.56-13.17 4.82-19.86.95-5.33-.25-10.85 1.23-16.11 1.14-5.55 2.04-11.37 1.02-16.99-1.28-6.38-9.4-9.56-14.94-6.73-5.46 3.42-8.53 9.35-13.17 13.68-1.1-6.9-2.1-13.8-2.55-20.77-3.79-19.69-9.94-38.96-18.67-57.03-1.57-3.24-3.51-6.38-6.41-8.59-10.17-.24-20.23 1.24-30.38 1.36-18.16 2.5-36.61 1.76-54.73 4.59-1.49.61-1.9 2.55-2.84 3.77-3.52 3.18-4.44 7.95-5.78 12.28-3.39-1.14-7.42-2.92-10.78-.72-2.74 2.04-4.19 5.29-5.86 8.17-2.43 4.58-4.96 9.53-4.74 14.85 1.25 3.23 3.41 6.01 4.95 9.1-2.19.78-5.01.65-6.68 2.38-4.29 7.59-8.31 15.77-8.74 24.63.76 7.66 6.49 13.48 8.58 20.69-2.29.9-4.72 1.57-6.77 2.96-3.04 2.88-3.41 7.36-3.42 11.31.29 7.52 1.83 14.91 3.34 22.26-2.24 3.35-5.07 6.46-6.15 10.44-1.1 3.82-1.8 7.78-3.38 11.46-.64 1.87-1.74 3.81-1.09 5.84 1.55 6.14 4.95 11.56 8.03 17.02 3.82 6.97 10.04 12.16 14.34 18.8 4.35 5.76 7.88 12.05 11.71 18.15 3.32 5.27 7.85 9.58 12.21 13.97-1.66 7.9-3.97 15.78-3.93 23.92-.57 5.32-1.41 10.61-1.41 15.98-8.16.2-15.75 3.29-23.46 5.58-4.25 2.22-5.93 7.06-7.88 11.12-2.12 1.14-4.99 1.96-5.58 4.65-.56 3.42-.25 6.91-.56 10.36-2.78 35.14-1.2 70.4.54 105.54.37 4.64.16 9.31.33 13.96 1.35 18.31 1.36 36.69 2.73 55.01.94 12 1.22 24.16 4.4 35.84 1.61 4.49-3.42 7.73-3.19 12.21-.66 13.8 6.99 26.18 14.67 37.03 3.92 6.05 8.75 11.46 12.5 17.63 6.48 8.15 14.48 14.99 23.16 20.71 10.25 7.26 20.5 14.59 31.48 20.71 2.41 1.15 3.08 3.91 4.18 6.11 2.72.65 5.5 1.71 8.35 1.24 3.12-.47 6.13-1.51 9.26-1.88.82 1.03 1.64 2.08 2.46 3.14 3.88.25 7.58-1.55 10.51-3.97 5.32-4.33 9.57-9.76 14.29-14.69 15.31-16.46 29.76-33.67 43.99-51.07 13.26-15.75 25.41-32.39 36.93-49.46 5.93 17.35 10.66 35.09 17.19 52.25 8.02 22.88 16.42 45.63 24.67 68.43.77 2.33 2.16 4.74 1.49 7.27-1.06 4.49-2.48 8.91-3.11 13.5H0V-2m259.48 73.47c-1.06 1.63-1.41 3.53-1.7 5.41-1.3-1.42-2.64-2.79-4.16-3.97-.49.54-1.45 1.62-1.93 2.16 1.49 5.05 1.8 10.78 5.43 14.9 1.72 2.01 3.55 4.26 6.3 4.78.21-5.96-4.51-10.45-5.31-16.16 2.53 3.46 3.68 7.68 5.94 11.3.65 1.02 1.46 2.37 2.87 2.3 3.15.83 4.96-2.53 7.96-2.69.32-1.8 1.05-3.7.17-5.47-1.77-4.95-4.46-9.49-6.6-14.28-3.43-.85-5.7 2.99-8.97 1.72z"/><path d="M544.2-2H594v115.32c-8.24-3.16-16.56-6.09-24.92-8.9-1.63.33-3.28.64-4.9.95-3.36-9.16-8.09-19.87-18.42-22.64-.67-6.55-1.52-13.09-1.44-19.69-1.12-12.32.42-24.73-1.1-37.03-.73-6.64-.34-13.34-.47-20.01-.11-2.74.39-5.47 1.45-8z"/></g><g fill="#040204"><path d="M268.5-2h6.5c-2.77 3.64-4.32 8.11-7.54 11.43-2.24 2.41-4.48 4.91-7.24 6.75-9.6 5.76-20.93 9.83-27.62 19.33-5.54 7.29-6.65 16.68-7.21 25.54.08 3.94.22 8.39 2.98 11.51 2.57 2.8 5.7 5 8.67 7.35 3.84 3.15 8.67 4.6 12.88 7.14-.06 1.33-.12 2.66-.19 3.99-5.01-.31-10.13-.84-14.74-3-6.45-2.7-12.69-7.78-14.02-15-1.16-6.65-3.81-13.19-3-20.03.51-6.35 2.27-12.76 6.07-17.96 3.11-4.8 7.46-8.57 11.26-12.8 4.57-4.51 9.57-8.68 15.25-11.75 6.36-3.6 12.18-8.04 17.95-12.5z"/><path d="M319.47-2h10.48c.07 9.11 2.23 18.01 3.29 27.02 1.17 5.49 2.42 10.96 3.89 16.38 6.79-2.21 13.87-3.8 20.36-6.81.23-1.65-.2-3.27-.55-4.86-4.23-1.13-6.02-6.15-4.13-9.94 2.93-6.38 1.92-14.01 5.84-20 .88-.58 1.75-1.17 2.61-1.79h.41c.3 2.19 1.02 4.28 1.69 6.38-1.76 5.9-3.2 11.91-4.39 17.94 3.65.09 7.33.89 10.98.23 3.48-.43 6.57-2.36 10.07-2.72 14.55-1.64 28.73-5.64 42.54-10.41 2.07-.7 4.13-1.53 5.94-2.79 4.49-3.01 9.4-5.36 13.72-8.63h16.64c5.13 3.71 4.97 10.72 8.05 15.79-.97 5.74-.17 11.63-1.53 17.33-.94 8.4-2.3 16.77-5.23 24.73-1.4 3.37-1.95 7.36-4.83 9.87-.42-7.87 3.63-15.12 4.14-22.92.44-9.24 2.67-18.42 1.63-27.68-1-1.59-2.46-2.82-3.75-4.15-3.71 11.33-8.6 22.29-14.92 32.41-2.45 3.43-4.12 7.32-6.44 10.83-2.27 3.44-3.23 7.59-5.71 10.89-2.22 2.35-5.43 3.32-7.86 5.4-14.17.96-28.21 3.8-42.47 3.42-.18.25-.54.73-.72.98 1.18 4.67 4.63 8.31 6.14 12.86-2.22-.68-5.16-.25-6.7-2.3-4.61-4.9-6.76-11.91-5.94-18.57.81-1.64 2.12-2.95 3.2-4.42-5.25-.66-10.01 2.37-14.95 3.66-5.26 1.33-10.31 3.33-15.29 5.46 2.58 10.71 3.42 21.85 7.41 32.19 2.19 5.37 4.55 10.68 7.23 15.82 1.62 3.12 4.55 5.28 6.24 8.35 4.84 2.83 8.35 7.53 13.59 9.76 2.7.79 4.1 3.42 6.45 4.75 3.36 1.11 7.08 1.34 10.38-.12-2.8-1.37-5.8-2.36-8.42-4.07-4.98-3.66-8.06-9.13-11.83-13.89-3.85-5.17-4.5-11.84-4.57-18.08.62-1.28 1.65-2.29 2.54-3.39 1.09 1.12 2.19 2.24 3.27 3.37.5 2.26.55 4.77 1.95 6.73 2.74 3.94 5.11 8.12 7.83 12.07 3.09 4.51 7.81 7.69 12.92 9.48 7.57 3.76 16.66 3.54 24.43.47 4.46-1.83 9.43-2.59 13.33-5.6 5.56-3.53 8.55-9.6 12.19-14.85 4.79-6.39 6.18-14.59 6.52-22.38 1.18-1.82 3.36-1.84 5.18-1.09 1.37 6.48-.91 12.98-3.14 19-3.22 8.27-8.65 15.36-14.11 22.26-5.1 5.58-12.07 8.86-18.95 11.69-4.25 1.67-8.85 1.53-13.3 2.13.81 1.9 3.06 2.3 4.7 3.24 8.64 3.97 16.67 9.86 26.27 11.23 4.47-.8 8.92-3.17 13.52-1.53 3.11.52 6.36.76 9.17-.95.66.2 1.33.41 2 .62.06-2.31.01-4.63.26-6.93 1.72-1.41 2.35 1.77 3.53 2.5 9.79-8.78 20.96-15.87 31.77-23.29 6.19-6.51 12.16-13.28 18.98-19.15 3.62-3.34 7.13-6.97 9.28-11.46 1.48-3.66 5.8-5.52 6.45-9.61.58-8.62-.27-17.24-.93-25.83-.22-6.75.12-13.51-.21-20.26-.96 2.06-1.93 4.13-2.59 6.31-2.96 9.33-7.8 17.9-12.3 26.54-5.74 8.21-10.85 16.9-17.43 24.48-3.12 5.48-8.25 9.2-12.59 13.61-4.47 4-9.68 7.04-14.64 10.38-5.05 2.46-10.41 4.34-15.82 5.85-.68-.7-1.36-1.39-2.02-2.08l-.08-2.99c2.02-1.5 4.01-3.09 6.31-4.15 10.31-3.79 19.53-10.3 27.02-18.31 6.66-5.96 10.3-14.29 15.73-21.24 6.12-9.11 9.32-19.7 12.98-29.94 4.95-11.95 8.03-24.59 10.27-37.3 1.72-5.87 1.68-12.07 3.46-17.93h8.29c-1.06 2.53-1.56 5.26-1.45 8 .13 6.67-.26 13.37.47 20.01 1.52 12.3-.02 24.71 1.1 37.03-.08 6.6.77 13.14 1.44 19.69 10.33 2.77 15.06 13.48 18.42 22.64 1.62-.31 3.27-.62 4.9-.95 8.36 2.81 16.68 5.74 24.92 8.9V684h-87.58c.1-12.36 1.31-24.68 1.74-37.02.1-10.66 1.78-21.27 1.28-31.92.68-5.96 1.25-11.97.84-17.97-3.45-.07-6.96.53-10.3-.55-.86-3.76-1.8-7.65-.63-11.46 1.42-3.98.3-8.51 2.57-12.2 3.19.53 6.43.98 9.66.51 6.21.73 12.41-.49 18.63-.28 6.38-4.93 6.91-13.77 10.21-20.63 2.49-4.4 1.95-9.64 3.68-14.28 2.78-6.79 3.3-14.25 6.03-21.07 3.41-8.34 3.84-17.48 6.91-25.91 1.42-7.65 4.39-14.92 5.29-22.67 1.95-8.08 3.25-16.29 4.39-24.52.23-3.81 0-8.12-2.6-11.15-3.91-4.08-9.69-5.4-13.91-9.08-7.17-5.98-15.16-10.86-22.97-15.96-2.09-1.45-4.6-1.97-7.06-2.34-.51-.77-1.02-1.53-1.51-2.29 1.47-25.41 2.26-50.84 3.95-76.23.02-8.35 1.66-16.62 1.17-24.98 2-37.14 3.43-74.32 5.9-111.43 1.33-5.83.51-11.82 1.07-17.71.62-6.63.01-13.3.42-19.93 1.02-7.93-.19-15.96.94-23.89.58-3.43.18-7.09 1.66-10.32 1.66-3.57 1.77-7.61 1.68-11.47-2.63 2.17-4.89 4.72-7.1 7.3-4.94 5.93-10.41 11.38-15.4 17.28 1.67 4.98 4.04 9.88 4.14 15.22.07 4.6.47 9.33-1.15 13.73-.75 3.09-2.8 6.11-1.9 9.39 1.96 8.92 8.04 17.23 5.94 26.74-.97 3.29-.26 6.66-.19 10-1.53 4.45-5.25 8.18-4.54 13.24-2.74-.59-5.54-.78-8.33-.94-5.84-.9-11.51-3.2-16.07-7.01-5.36-4.64-12.55-6.59-17.56-11.69-1.57-2.25-4.31-.63-6.38-.22-5.3 1.5-10.85 1.39-16.31 1.39.16.98.47 2.95.63 3.93-.34-.08-1.01-.23-1.35-.31-1.4.23-2.81.38-4.23.45-1.99 2.1-3.12 4.79-4.74 7.15-1.92 2.01-4.38 3.46-6.15 5.64-3.03 4.08-8.34 5.02-12.98 6.15-3.78.4-8.15 1.12-11.42-1.34-2.03-2.79-4.08-5.75-4.88-9.17-1.57-7.74-7.41-14.08-7.7-22.18-.69-3.85 1.83-7.23 2.13-10.98-2.28-9.65-7.97-18.38-8.66-28.4-4.65-2.67-9.61-4.79-14.19-7.57 2.91 11.95 5.82 23.92 9.33 35.73 2 6.59 3.08 13.41 4.67 20.1 2.33 8.52 4.8 17 6.71 25.63 1.85 9.54 4.82 18.82 6.77 28.35 3.2 12.74 6.85 25.38 9.78 38.2 4.53 17.46 8.01 35.17 13.11 52.49 4.22 16.01 7.92 32.16 12.04 48.2-1.18 4.04-1.02 9.15-4.79 11.83-6.13 3.43-13.19.68-18.71-2.63-9.1-5.72-17.97-11.82-26.3-18.62-5.57-3.81-10.56-8.44-16.47-11.75-6.55 14.28-11.33 29.28-17.53 43.71 1.93 1.59 4.2 2.55 6.74 2.35 2.67-1.97 5.93-4.24 9.42-3.23 3.66 1.08 7.19 2.6 10.68 4.14 5.07 2.62 7.66 7.96 9.12 13.21 4.72-1.89 10.37-4.41 15.29-1.76 3.91 2.08 8.55 3.12 11.84 6.2 3.06 6.69 2.02 14.36 3.35 21.47.95 4.05-.11 8.15.22 12.24.88 8.02.36 16.1.49 24.16-3.08 1.05-6.19 2-9.14 3.37.63 2.48 1.58 4.98 1.31 7.6-3.69 5.97-11.36 5.92-17.17 8.57-9.56 4.2-19.58 7.41-28.76 12.45-10.31 4.09-19.16 10.96-28.99 16.01-1.4.92-4.22 1.72-2.96 3.93 3.64 7.99 8.49 15.37 12.55 23.15 5.06 8.05 7.69 17.51 14.05 24.74 7.06-3.84 13.52-8.69 20.59-12.52 8.48-4.36 16.31-9.88 24.81-14.21 5.56-2.78 10.56-6.51 16.04-9.42.62.22 1.86.66 2.48.89.89 2.21 1.58 4.5 2.31 6.77.41-.76 1.23-2.29 1.64-3.06.68-.23 2.03-.71 2.71-.95 1.17.57 2.35 1.14 3.54 1.72.01.76.04 2.27.06 3.02 6.33.9 12.75.3 19.1-.05 4.12.31 8.25.55 12.39.43.68 1.55 1.2 3.16 1.74 4.77-1.89.65-3.77 1.36-5.47 2.41-4.72.16-9.5-.26-14.14.79 2.29 6.53 5.85 12.69 6.73 19.66.36 1.33-.97 2.1-1.61 3.06-.34 1.08-.66 2.17-1.01 3.27-3.52.04-7.02.4-10.52.73-.62 15.7 2.37 31.19 3.85 46.76 1.03 11.72 3.16 23.32 4.15 35.04H292.2c.63-4.59 2.05-9.01 3.11-13.5.67-2.53-.72-4.94-1.49-7.27-8.25-22.8-16.65-45.55-24.67-68.43-6.53-17.16-11.26-34.9-17.19-52.25-11.52 17.07-23.67 33.71-36.93 49.46-14.23 17.4-28.68 34.61-43.99 51.07-4.72 4.93-8.97 10.36-14.29 14.69-2.93 2.42-6.63 4.22-10.51 3.97-.82-1.06-1.64-2.11-2.46-3.14-3.13.37-6.14 1.41-9.26 1.88-2.85.47-5.63-.59-8.35-1.24-1.1-2.2-1.77-4.96-4.18-6.11-10.98-6.12-21.23-13.45-31.48-20.71-8.68-5.72-16.68-12.56-23.16-20.71-3.75-6.17-8.58-11.58-12.5-17.63-7.68-10.85-15.33-23.23-14.67-37.03-.23-4.48 4.8-7.72 3.19-12.21-3.18-11.68-3.46-23.84-4.4-35.84-1.37-18.32-1.38-36.7-2.73-55.01-.17-4.65.04-9.32-.33-13.96-1.74-35.14-3.32-70.4-.54-105.54.31-3.45 0-6.94.56-10.36.59-2.69 3.46-3.51 5.58-4.65 1.95-4.06 3.63-8.9 7.88-11.12 7.71-2.29 15.3-5.38 23.46-5.58 0-5.37.84-10.66 1.41-15.98-.04-8.14 2.27-16.02 3.93-23.92-4.36-4.39-8.89-8.7-12.21-13.97-3.83-6.1-7.36-12.39-11.71-18.15-4.3-6.64-10.52-11.83-14.34-18.8-3.08-5.46-6.48-10.88-8.03-17.02-.65-2.03.45-3.97 1.09-5.84 1.58-3.68 2.28-7.64 3.38-11.46 1.08-3.98 3.91-7.09 6.15-10.44-1.51-7.35-3.05-14.74-3.34-22.26.01-3.95.38-8.43 3.42-11.31 2.05-1.39 4.48-2.06 6.77-2.96-2.09-7.21-7.82-13.03-8.58-20.69.43-8.86 4.45-17.04 8.74-24.63 1.67-1.73 4.49-1.6 6.68-2.38-1.54-3.09-3.7-5.87-4.95-9.1-.22-5.32 2.31-10.27 4.74-14.85 1.67-2.88 3.12-6.13 5.86-8.17 3.36-2.2 7.39-.42 10.78.72 1.34-4.33 2.26-9.1 5.78-12.28.94-1.22 1.35-3.16 2.84-3.77 18.12-2.83 36.57-2.09 54.73-4.59 10.15-.12 20.21-1.6 30.38-1.36 2.9 2.21 4.84 5.35 6.41 8.59 8.73 18.07 14.88 37.34 18.67 57.03.45 6.97 1.45 13.87 2.55 20.77 4.64-4.33 7.71-10.26 13.17-13.68 5.54-2.83 13.66.35 14.94 6.73 1.02 5.62.12 11.44-1.02 16.99-1.48 5.26-.28 10.78-1.23 16.11-1.26 6.69-1.3 13.83-4.82 19.86-3.74 8.73-9.1 16.62-14.98 24.02-4.43 5.54-7.34 12.06-10.81 18.19-2.02 3.7-3.8 7.6-4.49 11.78-1.41 9.03-2.37 18.13-3.81 27.16-.75 5.01-4.23 8.76-7.16 12.63-1.24 6.68.39 13.52 0 20.26-.49 6.23.39 12.44.38 18.67 2.94-9.57 5.1-19.41 9.28-28.55 1.94-5.3 5.5-9.75 7.9-14.79 1.1-7.09 1.37-14.56 4.78-21.07 1.65-3.45 4.75-5.82 7.76-8.02 3.89 1.65 7.02 4.48 10.31 7.05 2.08-.06 3.72-1.7 5.44-2.72 6.1-4.71 12.98-8.25 19.39-12.5 14.67-8.66 29.25-17.46 43.82-26.29 10.27-6.18 21.41-10.83 31.33-17.61 17.84-10.25 35.53-20.77 53.5-30.8-3.87-3.18-7.07-7.07-9.76-11.27-5.74-7.45-9.63-16.1-13.34-24.67-3.27-9.46-5.45-19.25-8.69-28.72-5.97 1.45-11.77 3.5-17.47 5.77-8.86 3.46-18.19 5.49-27.14 8.7-3.46.98-7.09 1.13-10.51 2.27-6.36-4.56-5.27-13.31-8.72-19.6-1.44-1.89-3.09-3.65-3.99-5.88 11.05-3.81 21.78-8.48 32.94-11.94 9.07-3.27 18.07-6.74 27.19-9.89-5.07-14.93-5.64-30.79-8.72-46.15M446.4 4.36c-9.37 4.41-18.76 8.86-27.51 14.43-4.02 1.51-7.96 3.26-12 4.7-8.88 2.12-17.71 5.18-26.91 5.26-5.05.55-10.22 1.81-15.27.95-2.2 2.96.36 6.61 2.46 8.89 3.67.06 7.27.85 10.9 1.36 7.6 1.11 15.26.02 22.74-1.43 7.38-1.04 14.38-3.77 21.18-6.72 4.38-2.31 8.97-4.74 11.88-8.89 3.33-4.4 9.02-5.56 13.2-8.82 2.61-2.91 4.64-6.3 7.28-9.2-.94-1.64-1.96-3.24-3.17-4.68-1.71 1.25-3.37 2.57-4.78 4.15M116.94 37.02c-4.73-.1-9.29 2.1-14 1.13-5.68.35-11.26 2.23-16.98 1.76-1.65.19-3.45.13-4.95.93.17 4.91-2.88 9.24-2.51 14.18 3.53 3.22 6.17 7.24 9.56 10.59 2.42 2.35 3.18 5.78 5.23 8.4 2.38 3.1 4.07 6.96 3.64 10.94-1-.4-1.99-.8-2.98-1.22-2.13 1.94-3.91 4.19-5.77 6.37 3.69 3.82 7.1 8.16 11.71 10.92 6.9.82 13.49-1.91 20.31-2.43 7.54-1.5 15.12-3.01 22.83-3.23 5.34-.65 10.67-1.6 16.06-1.61 4.73-1.84 9.85-.5 14.74-1.27 3.64-.59 7.34-.07 11-.48.04-.5.13-1.49.17-1.99-1.58-11.06-5.92-21.42-9.17-32.05-2.65-7.68-7.24-14.44-10.73-21.73-10.63.56-21.26-1.18-31.89-.09-5.44-.76-10.82.98-16.27.88m240.58 7.41c-6.71 3.07-14.34 3.83-20.77 7.44-6.69-.41-12.41 3.49-18.66 5.13-6.02 1.67-11.78 4.28-17.97 5.31-4.42 1.15-8.67 2.92-13.17 3.77-3.17.76-6.5 1.02-9.37 2.68 1.95 4.66 3.93 9.38 4.71 14.41.38 1.02.19 2.83 1.73 2.92 12.77-4.02 26-6.92 38.19-12.62 4.89-2.06 10.09-3.41 14.7-6.1 7.02-1.35 13.2-5.19 20.01-7.2 5.78-1.71 11.48-3.68 17-6.12 4.08-1.82 8.82-2.14 12.36-5.07-7.07-1.16-14.07-2.71-21.07-4.17-2.51-.74-5.21-1.87-7.69-.38m39.01 9.38c-1.11.8-2.16 1.8-3.55 2.06-4.49 1.17-8.94 2.59-13.03 4.78.86 1.82 1.77 3.61 2.78 5.36 4.09-.22 8.17-.67 12.28-.6 5.77.08 11.36-1.63 17.11-1.9 3.66-.62 7.52.11 11.03-1.32 2.57-1.48 4.15-4.1 5.66-6.55.24-1.41.53-2.8.82-4.19-11.06.09-22.06 1.57-33.1 2.36M57.8 74c.18.6.53 1.8.71 2.39 4 2.37 8.32 4.23 12.66 5.86 4.87-.84 9.86 1.41 14.54-.48 2.82-5.26.01-11.69-4.65-14.83-5.27-3.73-11.39-6.02-17.3-8.53C60.8 63.2 59.54 68.72 57.8 74m-2.77 16.17c-1.89 1.07-2.62 3.32-3.43 5.21-1.15 4.18-3.01 8.24-3.18 12.64-.22 2.87 1.31 5.46 2.24 8.07 1.87 3.87 2.97 8.11 5.34 11.72 2.46.13 4.68-1.46 7.07-1.95-.28-1.77-.59-3.53-.85-5.3-.85-1.23-2.81-2.54-1.9-4.28 2.88-1.18 5.65-2.62 8.37-4.14 7.91 2.08 14.07 7.75 21.59 10.73 5.81 3.25 14.16 6.55 19.63.97-.04-.62-.13-1.87-.18-2.49-3.55-3.15-6.52-6.84-9.79-10.26-7.81-6.53-13.04-15.97-22.38-20.62-7.53.59-15.03-1.14-22.53-.3m109.7 26.67c-1.22 7.04-1.37 14.17-1.55 21.29.44 3.3-.29 6.57-.73 9.82-.56 4.06.36 8.24-.79 12.23-.71 2.94-.79 5.99-1.52 8.92-.71 3.09-2.04 6.07-1.89 9.3 5.94-6.52 9.9-14.75 12.21-23.23 1.36-3.6 2.85-7.17 3.71-10.93 1.86-9.6 4.22-19.37 2.9-29.2-.56-3.25-3.72-5.91-7.1-4.96-2.47 1.48-4.58 3.91-5.24 6.76m38.14-2.89c-4.87 5.97-8.82 13.28-8.98 21.14-2.62 14.05-5.02 28.45-11.71 41.27-5.47 8.31-9.68 17.86-17.76 24.08-3 2.16-4.9 5.9-8.82 6.6 1.03 13.66 1.04 27.38 2.01 41.05.91 3.9.08 8.1 1.55 11.84 5.43-4.62 10.9-9.58 13.92-16.18 2.9-5.1 2.61-11.13 4.01-16.68 1.9-7.61 2.11-15.51 3.68-23.17 1.48-6.96 5.62-12.84 9.08-18.92 4.97-7.29 11.26-13.57 16.25-20.85 1.49-2.24 3.69-4.21 4.17-6.97 1.13-6.13 1.91-12.31 2.39-18.52.88-3.56 1.51-7.16 1.77-10.82.34-4.68 2.5-9.12 1.94-13.87-.07-2.22-2.13-3.99-4.31-3.95-3.56-.54-6.59 1.86-9.19 3.95M60.13 135.19c-3.77 2.13-8.07 2.9-12.15 4.23-.35 7.36-1.2 14.74-.37 22.11 3.3-1.26 5.43-5.68 9.32-4.74l2.01-1.21c8.69 3.87 18.07 5.81 27.23 8.23 6.16 4.83 11.4 10.69 16.61 16.48 1.79 2.07 4.7 1.59 7.13 1.62 1.76-1.83 4.83-2.96 5.02-5.81-3.12-6.61-9.36-10.93-13.2-17.04-1.82-2.52-2.3-6.04-5.31-7.55-8.57-6.94-16.98-14.29-26.64-19.69-3.23 1.08-6.65 1.68-9.65 3.37m438.93 7.94c-6.67 5.26-12.75 11.24-19.69 16.18-2.13 1.03-1.17 3.52-.74 5.27 6.1-4.3 10.72-10.61 17.41-14.17 2.34-1.11 4.57.67 5.92 2.43-2.69 4.85-7.43 8.17-9.6 13.34 1.13-.38 2.29-.76 3.44-1.12 1.03-1.03 2.01-2.12 3.17-3 2.19-.43 4.41.54 6.2 1.76-.8 2.12-1.58 4.27-2.65 6.28 2.69 1.36 1.86 4.29-.15 5.84 1.2.93 2.37 1.91 3.52 2.93-.8.94-1.59 1.89-2.37 2.84 1.66 1.83 2.48 4.14 3.4 6.38 1.12 1.05 2.75 1.34 4.11 2.04.62 1.55 1.4 3.05 2.57 4.26.81-5.94-4.04-10.66-4.78-16.37-.29-2.09-.64-4.17-1.15-6.21.25-5.17 2.79-9.74 3.81-14.73.21-4.73-2.9-8.6-3.51-13.16-.69-1.1-1.38-2.2-2.07-3.29-2.28.83-4.67 1.4-6.84 2.5m-96.76 7.44c-.51 2.85-1.22 5.65-1.77 8.49-.74 4.74 3.26 8.27 4.05 12.69.67 3.07 1.52 6.16 1.52 9.34.01 3.6-1.85 7.1-.9 10.71 1.21 4.22 2.65 8.4 4.71 12.29 2.11 4.22 2.99 8.88 4.61 13.27.14-1.99 1.87-4.43.29-6.14-3.44-3.43-2.51-9.15-.5-13.1-1.94-4.18-3.04-8.68-4.25-13.1.25-3.01.57-6 .51-9.02-.19-1.5.52-2.86 1.61-3.85 2.67-.55 5.11 1.47 7.77 1.52 1.66-.25 3.23-.87 4.86-1.28-5.44-2.04-10.95-4.04-15.62-7.59-1.28-1.58-1.17-3.86-1.85-5.72.85-.85 1.74-1.66 2.67-2.44 3.12 1.51 5.18 4.64 8.44 5.93 3.43 1.36 7.18 1.8 10.46 3.56 4.74.88 8.71 4.13 13.56 4.49-.07-.59-.23-1.77-.3-2.36-2.84-1.3-5.94-2-8.71-3.45-5.66-3.97-12.06-6.69-18.03-10.13-2.06-1.34-4.72-.76-6.82-1.98-1.99-1.02-4.07-1.88-6.31-2.13m-357 26.77c-3.58 3.63-5.51 8.54-6.26 13.51-.6 2.51 1.42 4.48 2.37 6.6 2.95 1.93 3.98 5.52 6.48 7.9 9.3 10.39 16.02 22.64 23.72 34.18 2.58 5.67 5.59 11.25 10.11 15.63 3.7 5.32 9.89 7.89 14.53 12.23 4.13 2.07 8.29 4.43 12.95 5.05 3.91.55 6.99 3.5 10.95 3.94 4.24 1.33 9.14-1.79 12.96 1.18 2-.95 4.07-1.81 5.84-3.17-2.12-14.47-3.07-29.16-3.63-43.79-1.36-5.99-.77-12.17-2.01-18.18-5.76-2.48-11.8-4.5-16.73-8.51-2.4 3.35-5.37 6.28-8.92 8.41 2.83 2.1 5.49 4.43 8.16 6.74 1.88 2.84 5.11 4.42 6.87 7.35 4.16 6.22 7.77 12.84 10.57 19.78 2 4.86.56 10.42-2.01 14.79-2.82-2.72.31-6.67-1.43-9.78-2.92-6.18-5.75-12.46-9.61-18.13-2.13-3.3-5.43-5.55-7.99-8.46-3.23-3.57-7.67-5.63-11.51-8.42-4.29-3.11-10.01-3.32-14.13-6.71-4.17-3.51-7.25-8.06-10.85-12.11-5.69-2.65-12.1 1.04-17.89-1.52.08-2.26.22-4.52.54-6.76 1.51.2 2.99.57 4.39 1.16 3.28-.27 6.6-1.43 9.88-.82 2.97 1.61 6.53 2.56 8.65 5.39 3.26 4.18 7.9 6.97 12.6 9.25 4.99 2.1 10.16-.04 15.02-1.34 1.29-.43 1.85-1.86 2.8-2.73-1.49-2.67-3.37-5.07-5.19-7.51-1.33-.97-2.63-1.99-3.78-3.17-3.55-4.11-7.85-7.48-11.44-11.57-2.63-2.3-4.28-5.69-7.32-7.48-4.69-.99-9.13-2.92-13.84-3.78-4.61.15-9-1.31-13.51-1.99-3.75 4.3-7.41 8.7-11.34 12.84m402.75-9.05c-.14 3.32-.65 7.01 1.56 9.81 1.78-1.39 1.83-3.48 1.07-5.4.86-1.11 1.9-2.65 3.59-2.13 4.14.84 7.95-1.7 12.1-1.37-.98-.83-1.76-2.26-3.22-2.18-5.07-.33-10.17.05-15.1 1.27m20.18-.05c.53.59.53.59 0 0m0 2.02c.53.49.53.49 0 0m-328.21 38.65c2.18 5.01 1.98 10.52 1.81 15.87.49 8.39.95 16.78 1.07 25.2.33 1.65.39 3.34.39 5.03.08 8.69 2.07 17.26 1.69 25.97.54 7.67.71 15.38 2.08 22.97.74 1.69-1.12 2.65-1.97 3.79-9.65-1.03-18.82 2.63-27.78 5.61-5.13 2.28-10.06 4.95-15.11 7.4-.55 1.51-.78 3.1-.89 4.7.64.79 1.28 1.6 1.91 2.41.73.95 1.22 2.4 2.62 2.53 3.31.92 6.66 1.73 10.02 2.49 11.03-.39 21.86 2.2 32.85 2.33 6.32.12 12.89 1.07 18.95-1.18 8.42-1.59 16.95-2.82 25.16-5.34 5.55-2.56 11.98-2.89 16.82-6.97-.47-3.07-4.01-3.53-5.22-6.2-1.76-.25-3.55-.41-5.22-1.01-9.41-3.87-19.05-7.72-29.25-8.67-3.66-.4-7.34 1.07-10.93.27-2.37-2.02-3.24-5.28-3.27-8.28-.53-6.26.29-12.58-.6-18.81-.37-3.52.5-7.34-1.72-10.41 1.82-3.7.53-7.74.49-11.64-.01-5.01-1.21-9.92-1.64-14.9-.11-7.75-1.47-15.43-1.2-23.19.18-1.57-.99-2.78-1.68-4.04.03-2.18.87-4.42.06-6.54-3.14.34-6.28.58-9.44.61m21.55 59.65c-2.11 1.18-2.42 3.71-1.96 5.88 1.57 8.7.62 17.79 3.21 26.32 2.28.16 4.57.1 6.85.07-.39-6.63-1.57-13.23-1.24-19.89.86-6.48.51-13.04.45-19.55-3.28 1.44-4.37 5.27-7.31 7.17m-77.66 1.14c-2.35 8.28-4.15 16.8-4.16 25.45-.66 6.21-1.71 12.43-1.06 18.7.91 2.67 3.96 3.5 5.86 5.33 2.87 2.88 7.02 3.5 10.52 5.32 1.66-5.95 7.64-8.29 12.5-11.06 6.37-3.35 13.33-5.25 19.96-7.92 4.33-.85 8.6-2.06 12.98-2.66-.2-4.57.51-9.24-.68-13.71-.72-2.99-.32-6.09-.64-9.12-2.13.82-3.56 3.29-6.05 3.04-3.12-.42-6.08.72-9.13 1.04-7.12-1.66-14.48-1.83-21.55-3.73-4.61-2.04-7.98-6.01-12.28-8.56-1.97-1.01-4.19-1.37-6.27-2.12m90.35 26.57c.5.51.5.51 0 0m.98 5.94c-.3-1.55-.63-3.08-1-4.6-1.73 1.38-2.43 5.32 1 4.6M61.3 387.29c4.63 21.41 9.64 42.75 14.14 64.19 6.53-.04 13.07.01 19.6-.02 3.7-13.54 7.34-27.1 11.29-40.57 3.27 13.58 7.58 26.89 11 40.43 6.54.3 13.09.09 19.63.14 4.61-21.41 9.53-42.75 14.05-64.18-6.23.04-12.46.06-18.69-.01-2.06 11.7-4.71 23.28-7.08 34.92-3.49-11.56-6.4-23.28-9.86-34.84-6.26.2-12.67-.6-18.82.41-2.77 11.84-6.49 23.44-9.48 35.22-2.83-11.77-4.64-23.77-7.02-35.65-6.25-.06-12.51.02-18.76-.04m112.99-.03c-7.6 21.45-15.59 42.76-23.1 64.25 6.75-.18 13.52.19 20.26-.23.83-3.49 1.93-6.92 2.93-10.36 7.27-.05 14.54-.14 21.8.02 1.73 3.28 2.2 7.07 3.54 10.53 6.79.01 13.58-.02 20.37.02-7.25-21.51-15.59-42.64-22.88-64.13-7.64-.13-15.28.04-22.92-.1m52.13.06c.01 21.38-.01 42.76.01 64.14 6.51.01 13.02.01 19.53 0 .05-8.8-.11-17.59.09-26.39 3.34-.05 7.11 1.03 8.67 4.28 4.08 7.09 7.74 14.42 11.63 21.62l.63.5c7.32.01 14.65-.02 21.98.01-2.7-4.84-5.25-9.76-7.91-14.61-2.65-5.71-6.26-11.74-12.49-13.98 4.84-1.16 9.77-3.5 12.51-7.85 4.72-7.31 3.77-18.41-3.39-23.82-3.8-3.16-8.96-3.26-13.62-3.86-12.54-.12-25.09-.02-37.64-.04m73.13 31.78c3.51-.01 7.03-.01 10.55-.01v-7.21c-3.47.01-6.94-.11-10.4.05-.36 2.37-.17 4.78-.15 7.17m20.06 5.52c-3.68 2.77-3.64 8.85-.27 11.85 4.31 3.12 9.92 2.62 14.73 4.4 1.94 2.16-.85 4.73-3.14 4.51-2.59.44-4.01-2.09-5.04-4-3.49.51-7.02.76-10.49 1.37.93 1.65 1.82 3.35 2.98 4.86 3.99 3.51 9.69 3.43 14.69 3.29 4.75-.09 9.88-2.4 11.82-6.99 1.56-3.76-.9-8.05-4.4-9.66-4.45-2.15-9.58-1.61-14.19-3.23l.08-2.65c1.88-1 3.99-1.14 5.97-.29.37.55 1.12 1.64 1.5 2.19 3.46-.27 6.91-.75 10.34-1.33-1.62-3.23-4.37-6.31-8.18-6.64-5.46-.7-11.69-1.02-16.4 2.32m-20.1-2.15c.01 9.29 0 18.59.01 27.88h10.57c.02-9.29.01-18.58 0-27.88-3.52-.02-7.05-.02-10.58 0M63.03 465.4c-.15 12.83-.03 25.67-.07 38.51 7.37-.05 14.74.08 22.1-.05 2.95-.36 6.15-.39 8.73-2.05 4.59-2.61 6.16-8.96 3.97-13.63-.79-2.86-3.75-3.97-5.99-5.45 2.54-1.84 5.38-4.28 5.28-7.71.39-5.39-5.07-9.51-10.11-9.57-7.97-.11-15.94.03-23.91-.05m41.76.06c.02 7.21.02 14.41-.01 21.61-.01 3.4.54 6.88 2.12 9.93 2.02 4.23 6.7 6.68 11.23 7.1 5.58.7 11.75.9 16.71-2.17 4.25-2.37 6.23-7.34 6.74-11.96.1-8.18 0-16.37.03-24.55-3.88 0-7.76 0-11.63-.02-.14 7.55-.04 15.1-.05 22.65.02 1.82-.12 3.9-1.42 5.32-3.3 4.09-11.75 2.46-11.95-3.31-.14-8.21 0-16.43-.05-24.64-3.91-.01-7.81-.03-11.72.04m46.56 3.91c-3.75 4.16-3.14 11.51 1.62 14.64 4.75 3.49 10.91 3.53 16.17 5.89.22 1.29 1.35 2.61.73 3.96-1.13 3.02-5.29 3.67-7.82 2.13-2.11-1.09-2.61-3.6-3.52-5.56-3.89.21-7.75.7-11.64.8.99 3.04 1.52 6.52 3.93 8.84 3.22 3.74 8.51 4.29 13.14 4.44 5.86.21 12.7-1.33 15.99-6.67 3.24-4.73 2.18-11.75-2.45-15.2-5.1-3.31-11.32-3.87-16.96-5.79-.12-1.82.51-3.43 1.65-4.82 1.42.17 3.03-.23 4.32.58 1.76.85 1.91 3.08 2.77 4.64 3.88-.37 7.74-.8 11.64-.78-1.05-3.4-1.99-7.48-5.39-9.32-3.51-1.82-7.55-2.49-11.48-2.31-4.49.22-9.53.99-12.7 4.53m37.14-3.95c-.02 12.82.02 25.64-.02 38.46 3.9.04 7.81.03 11.72.03.02-12.82-.02-25.63.01-38.45-3.9-.07-7.81-.05-11.71-.04m45.75.01c-.06 7.24.07 14.49-.07 21.74-5.1-6.94-9.31-14.49-14.31-21.49-3.72-.58-7.52-.15-11.27-.25-.02 12.82-.01 25.65-.01 38.48 3.72 0 7.44 0 11.16-.02.05-7.16-.12-14.33.1-21.49 4.91 7.05 9.43 14.37 14.44 21.34 3.68.38 7.4.09 11.11.16 0-12.82-.01-25.65 0-38.47-3.72-.02-7.43-.02-11.15 0m18.97-.01c-.02 12.82-.01 25.65-.01 38.48 10.79.01 21.59.03 32.38-.01-.02-2.95-.02-5.9.01-8.84-6.89-.11-13.77-.03-20.66-.05v-7.26c6.14-.03 12.28.06 18.42-.06-.03-2.59-.03-5.16-.03-7.74-6.14-.02-12.27 0-18.41-.01.01-1.87.03-3.74.05-5.6 6.68.01 13.36.01 20.04-.01 0-2.98 0-5.96-.04-8.93-10.58.06-21.17.01-31.75.03m43.01 1.79c-5.36 2.94-6.77 10.76-2.7 15.34 4.26 4.46 10.79 4.66 16.24 6.71 1.68.44 2.48 2.21 2.72 3.8-.59 2.43-3.04 4-5.5 3.66-3.58.24-5.17-3.56-6.31-6.29-3.86.22-7.7.65-11.55.9 1.09 3.16 1.7 6.8 4.36 9.12 2.62 3.03 6.83 3.49 10.55 3.99 6.04.43 13.06-.33 17.21-5.27 4.1-4.52 3.76-12.39-1.12-16.22-4.74-3.49-10.87-3.92-16.27-5.84-2.39-1.28-.26-3.95.96-5.26 1.23.1 2.44.29 3.65.55 1.87.92 2.25 3.17 3.17 4.86 3.83-.41 7.66-.81 11.52-.75-.68-2.39-1.23-4.9-2.77-6.91-2-3.12-5.97-3.89-9.35-4.56-4.98-.52-10.31-.19-14.81 2.17m39.44-.5c-4.79 2.12-7.58 8.33-5.22 13.18 1.6 4.16 6.13 6.02 10.1 7.21 3.94 1.16 9.37 1.18 10.81 5.93-1.02 1.43-2.24 2.71-3.61 3.81-1.59-.2-3.27-.03-4.76-.7-2.12-1.19-2.78-3.7-3.75-5.74-3.82.26-7.63.76-11.46.74.77 3.22 1.46 6.78 4.02 9.13 2.77 3.17 7.25 3.8 11.2 4.2 6.15.39 13.45-.62 17.29-6.01 3.69-4.68 2.9-12.24-2-15.79-5.08-3.54-11.56-3.64-17.1-6.1-.02-1.81.87-3.32 1.98-4.67 1.89.08 3.79.34 5.39 1.45.44 1.3.9 2.6 1.4 3.89 3.91-.35 7.82-.77 11.76-.78-.68-2.27-1.22-4.65-2.63-6.6-2.08-3.4-6.33-4.24-9.95-4.88-4.54-.43-9.25-.05-13.47 1.73z"/><path d="M259.48 71.47c3.27 1.27 5.54-2.57 8.97-1.72 2.14 4.79 4.83 9.33 6.6 14.28.88 1.77.15 3.67-.17 5.47-3 .16-4.81 3.52-7.96 2.69-1.41.07-2.22-1.28-2.87-2.3-2.26-3.62-3.41-7.84-5.94-11.3.8 5.71 5.52 10.2 5.31 16.16-2.75-.52-4.58-2.77-6.3-4.78-3.63-4.12-3.94-9.85-5.43-14.9.48-.54 1.44-1.62 1.93-2.16 1.52 1.18 2.86 2.55 4.16 3.97.29-1.88.64-3.78 1.7-5.41z"/><path d="M396.87 88.13c6.98-1.38 14.22-1.3 21.25-.39 2.36.1 3.77 2.29 5.49 3.61-1.29 1.26-2.58 2.52-3.92 3.72-3.35-.94-6.78-1.76-10.28-1.51-3.45.41-6.89.92-10.36.86-5.26-.09-10.38 1.52-15.64 1.14-.76-.84-1.51-1.69-2.27-2.52.34-.63 1.02-1.88 1.36-2.51 4.52-1.92 9.57-1.71 14.37-2.4z"/><path d="M455.26 227.28c2.91-2.69 6.34-7.95 10.88-5.38 4.22 1.98 4.8 6.95 3.88 11.03-2.18 3.33-5.57 6.3-9.86 5.45-3.95-2.12-7.03-6.57-4.9-11.1z"/><path d="M464 285.46c1.39-.61 2.76-1.27 4.12-1.96 2.42.64 5.95.72 6.68 3.71 1.93 3.04.47 6.6-.58 9.68-1.88 1.08-3.69 2.28-5.5 3.48-3.31-.57-6.34-2.71-7.02-6.17-1.34-3.16.52-6.23 2.3-8.74z"/><path d="M245.96 400.13c5.01.25 10.19-.71 15.05.83 4.33 1.64 4.54 8.25.66 10.54-4.94 2.16-10.47 1.37-15.71 1.49v-12.86z"/><path d="M178.58 426.95c2.21-7.76 4.67-15.44 6.81-23.22 2.35 7.71 4.56 15.46 6.97 23.15-4.59.09-9.19.03-13.78.07z"/><path d="M427.16 442.85c8.24-2.96 17.12-2.59 25.74-2.59 2.8 3.01 1.41 7.33 1.76 11.01 1.63 1.8 1.07 3.94-.8 5.3-2.78-2.05-6.07-.76-8.98.13-3.27 1.18-6.48 2.73-9.14 4.99-1.8 1.4-.84 3.82-.95 5.74 4.96-2.88 10.39-5.26 16.22-5.22 1.74.62 2.89 2.13 4.17 3.39-.32 3.47.75 6.95.13 10.39.62 5.16 1.18 10.7-1.19 15.52-7.38 1.56-14.91 1.18-22.37 2.02-.56-.45-1.68-1.36-2.23-1.82.08-16.32-.74-32.62-2.36-48.86z"/><path d="M521.77 444.72c2.97-.51 6.24-1.77 9.01.12 6.74 4.17 13.85 7.82 19.74 13.2 1.3 1.96.32 4.3-.1 6.39-1.94 7.38-2.15 15.06-3.56 22.54-2.44 13.14-5.07 26.3-6.22 39.63l-1 2.43c-.76 7.21-2.1 14.4-4.21 21.34-2.7 4.16-4.83 8.98-8.82 12.09-4.91-.28-11.96 2.72-15.19-2.31 1.57-5.55 1.93-11.37 1.9-17.11 1.7-11.63 2.41-23.38 3.23-35.08-.6-4.7 1.9-9.41.54-13.98.32-1.26.65-2.51.97-3.76-.61-4.18.32-8.41.55-12.59.72-3.75-.82-7.46-.2-11.19.79-5.81 1.13-11.67 1.77-17.5.3-1.46.66-3.02 1.59-4.22m4.39 4.49c-1.59 3.04 3.25.28 0 0z"/><path d="M74.67 473.24c3.64.13 7.69-.85 10.77 1.64.06 2.12-.7 3.94-2.51 5.1-2.77-.06-5.53-.05-8.29-.09.03-2.22.03-4.44.03-6.65z"/><path d="M74.67 487.19c3.98.39 9.03-1.46 11.99 2.1.56 1.47.64 3.62-.98 4.46-3.21 2.19-7.4.96-11.04 1.19.03-2.59.03-5.17.03-7.75z"/></g><g fill="#fcfefc"><path d="M329.95-2h31.31c-.86.62-1.73 1.21-2.61 1.79-3.92 5.99-2.91 13.62-5.84 20-1.89 3.79-.1 8.81 4.13 9.94.35 1.59.78 3.21.55 4.86-6.49 3.01-13.57 4.6-20.36 6.81-1.47-5.42-2.72-10.89-3.89-16.38-1.06-9.01-3.22-17.91-3.29-27.02z"/><path d="M361.67-2h80.55c-4.32 3.27-9.23 5.62-13.72 8.63-1.81 1.26-3.87 2.09-5.94 2.79-13.81 4.77-27.99 8.77-42.54 10.41-3.5.36-6.59 2.29-10.07 2.72-3.65.66-7.33-.14-10.98-.23 1.19-6.03 2.63-12.04 4.39-17.94-.67-2.1-1.39-4.19-1.69-6.38z"/><path d="M458.86-2h77.05c-1.78 5.86-1.74 12.06-3.46 17.93-2.24 12.71-5.32 25.35-10.27 37.3-3.66 10.24-6.86 20.83-12.98 29.94-5.43 6.95-9.07 15.28-15.73 21.24-7.49 8.01-16.71 14.52-27.02 18.31-2.3 1.06-4.29 2.65-6.31 4.15l.08 2.99c.66.69 1.34 1.38 2.02 2.08 5.41-1.51 10.77-3.39 15.82-5.85 4.96-3.34 10.17-6.38 14.64-10.38 4.34-4.41 9.47-8.13 12.59-13.61 6.58-7.58 11.69-16.27 17.43-24.48 4.5-8.64 9.34-17.21 12.3-26.54.66-2.18 1.63-4.25 2.59-6.31.33 6.75-.01 13.51.21 20.26.66 8.59 1.51 17.21.93 25.83-.65 4.09-4.97 5.95-6.45 9.61-2.15 4.49-5.66 8.12-9.28 11.46-6.82 5.87-12.79 12.64-18.98 19.15-10.81 7.42-21.98 14.51-31.77 23.29-1.18-.73-1.81-3.91-3.53-2.5-.25 2.3-.2 4.62-.26 6.93-.67-.21-1.34-.42-2-.62-2.81 1.71-6.06 1.47-9.17.95-4.6-1.64-9.05.73-13.52 1.53-9.6-1.37-17.63-7.26-26.27-11.23-1.64-.94-3.89-1.34-4.7-3.24 4.45-.6 9.05-.46 13.3-2.13 6.88-2.83 13.85-6.11 18.95-11.69 5.46-6.9 10.89-13.99 14.11-22.26 2.23-6.02 4.51-12.52 3.14-19-1.82-.75-4-.73-5.18 1.09-.34 7.79-1.73 15.99-6.52 22.38-3.64 5.25-6.63 11.32-12.19 14.85-3.9 3.01-8.87 3.77-13.33 5.6-7.77 3.07-16.86 3.29-24.43-.47-5.11-1.79-9.83-4.97-12.92-9.48-2.72-3.95-5.09-8.13-7.83-12.07-1.4-1.96-1.45-4.47-1.95-6.73-1.08-1.13-2.18-2.25-3.27-3.37-.89 1.1-1.92 2.11-2.54 3.39.07 6.24.72 12.91 4.57 18.08 3.77 4.76 6.85 10.23 11.83 13.89 2.62 1.71 5.62 2.7 8.42 4.07-3.3 1.46-7.02 1.23-10.38.12-2.35-1.33-3.75-3.96-6.45-4.75-5.24-2.23-8.75-6.93-13.59-9.76-1.69-3.07-4.62-5.23-6.24-8.35-2.68-5.14-5.04-10.45-7.23-15.82-3.99-10.34-4.83-21.48-7.41-32.19 4.98-2.13 10.03-4.13 15.29-5.46 4.94-1.29 9.7-4.32 14.95-3.66-1.08 1.47-2.39 2.78-3.2 4.42-.82 6.66 1.33 13.67 5.94 18.57 1.54 2.05 4.48 1.62 6.7 2.3-1.51-4.55-4.96-8.19-6.14-12.86.18-.25.54-.73.72-.98 14.26.38 28.3-2.46 42.47-3.42 2.43-2.08 5.64-3.05 7.86-5.4 2.48-3.3 3.44-7.45 5.71-10.89 2.32-3.51 3.99-7.4 6.44-10.83 6.32-10.12 11.21-21.08 14.92-32.41 1.29 1.33 2.75 2.56 3.75 4.15 1.04 9.26-1.19 18.44-1.63 27.68-.51 7.8-4.56 15.05-4.14 22.92 2.88-2.51 3.43-6.5 4.83-9.87 2.93-7.96 4.29-16.33 5.23-24.73 1.36-5.7.56-11.59 1.53-17.33-3.08-5.07-2.92-12.08-8.05-15.79m-61.99 90.13c-4.8.69-9.85.48-14.37 2.4-.34.63-1.02 1.88-1.36 2.51.76.83 1.51 1.68 2.27 2.52 5.26.38 10.38-1.23 15.64-1.14 3.47.06 6.91-.45 10.36-.86 3.5-.25 6.93.57 10.28 1.51 1.34-1.2 2.63-2.46 3.92-3.72-1.72-1.32-3.13-3.51-5.49-3.61-7.03-.91-14.27-.99-21.25.39z"/><path d="M446.4 4.36c1.41-1.58 3.07-2.9 4.78-4.15 1.21 1.44 2.23 3.04 3.17 4.68-2.64 2.9-4.67 6.29-7.28 9.2-4.18 3.26-9.87 4.42-13.2 8.82-2.91 4.15-7.5 6.58-11.88 8.89-6.8 2.95-13.8 5.68-21.18 6.72-7.48 1.45-15.14 2.54-22.74 1.43-3.63-.51-7.23-1.3-10.9-1.36-2.1-2.28-4.66-5.93-2.46-8.89 5.05.86 10.22-.4 15.27-.95 9.2-.08 18.03-3.14 26.91-5.26 4.04-1.44 7.98-3.19 12-4.7 8.75-5.57 18.14-10.02 27.51-14.43z"/><path d="M116.94 37.02c5.45.1 10.83-1.64 16.27-.88 10.63-1.09 21.26.65 31.89.09 3.49 7.29 8.08 14.05 10.73 21.73 3.25 10.63 7.59 20.99 9.17 32.05-.04.5-.13 1.49-.17 1.99-3.66.41-7.36-.11-11 .48-4.89.77-10.01-.57-14.74 1.27-5.39.01-10.72.96-16.06 1.61-7.71.22-15.29 1.73-22.83 3.23-6.82.52-13.41 3.25-20.31 2.43-4.61-2.76-8.02-7.1-11.71-10.92 1.86-2.18 3.64-4.43 5.77-6.37.99.42 1.98.82 2.98 1.22.43-3.98-1.26-7.84-3.64-10.94-2.05-2.62-2.81-6.05-5.23-8.4-3.39-3.35-6.03-7.37-9.56-10.59-.37-4.94 2.68-9.27 2.51-14.18 1.5-.8 3.3-.74 4.95-.93 5.72.47 11.3-1.41 16.98-1.76 4.71.97 9.27-1.23 14-1.13z"/><path d="M357.52 44.43c2.48-1.49 5.18-.36 7.69.38 7 1.46 14 3.01 21.07 4.17-3.54 2.93-8.28 3.25-12.36 5.07-5.52 2.44-11.22 4.41-17 6.12-6.81 2.01-12.99 5.85-20.01 7.2-4.61 2.69-9.81 4.04-14.7 6.1-12.19 5.7-25.42 8.6-38.19 12.62-1.54-.09-1.35-1.9-1.73-2.92-.78-5.03-2.76-9.75-4.71-14.41 2.87-1.66 6.2-1.92 9.37-2.68 4.5-.85 8.75-2.62 13.17-3.77 6.19-1.03 11.95-3.64 17.97-5.31 6.25-1.64 11.97-5.54 18.66-5.13 6.43-3.61 14.06-4.37 20.77-7.44z"/><path d="M396.53 53.81c11.04-.79 22.04-2.27 33.1-2.36-.29 1.39-.58 2.78-.82 4.19-1.51 2.45-3.09 5.07-5.66 6.55-3.51 1.43-7.37.7-11.03 1.32-5.75.27-11.34 1.98-17.11 1.9-4.11-.07-8.19.38-12.28.6-1.01-1.75-1.92-3.54-2.78-5.36 4.09-2.19 8.54-3.61 13.03-4.78 1.39-.26 2.44-1.26 3.55-2.06z"/><path d="M57.8 74c1.74-5.28 3-10.8 5.96-15.59 5.91 2.51 12.03 4.8 17.3 8.53 4.66 3.14 7.47 9.57 4.65 14.83-4.68 1.89-9.67-.36-14.54.48-4.34-1.63-8.66-3.49-12.66-5.86-.18-.59-.53-1.79-.71-2.39z"/><path d="M55.03 90.17c7.5-.84 15 .89 22.53.3 9.34 4.65 14.57 14.09 22.38 20.62 3.27 3.42 6.24 7.11 9.79 10.26.05.62.14 1.87.18 2.49-5.47 5.58-13.82 2.28-19.63-.97-7.52-2.98-13.68-8.65-21.59-10.73-2.72 1.52-5.49 2.96-8.37 4.14-.91 1.74 1.05 3.05 1.9 4.28.26 1.77.57 3.53.85 5.3-2.39.49-4.61 2.08-7.07 1.95-2.37-3.61-3.47-7.85-5.34-11.72-.93-2.61-2.46-5.2-2.24-8.07.17-4.4 2.03-8.46 3.18-12.64.81-1.89 1.54-4.14 3.43-5.21z"/><path d="M528.36 114.55c2.21-2.58 4.47-5.13 7.1-7.3.09 3.86-.02 7.9-1.68 11.47-1.48 3.23-1.08 6.89-1.66 10.32-1.13 7.93.08 15.96-.94 23.89-.41 6.63.2 13.3-.42 19.93-.56 5.89.26 11.88-1.07 17.71-2.47 37.11-3.9 74.29-5.9 111.43.49 8.36-1.15 16.63-1.17 24.98-1.69 25.39-2.48 50.82-3.95 76.23.49.76 1 1.52 1.51 2.29 2.46.37 4.97.89 7.06 2.34 7.81 5.1 15.8 9.98 22.97 15.96 4.22 3.68 10 5 13.91 9.08 2.6 3.03 2.83 7.34 2.6 11.15-1.14 8.23-2.44 16.44-4.39 24.52-.9 7.75-3.87 15.02-5.29 22.67-3.07 8.43-3.5 17.57-6.91 25.91-2.73 6.82-3.25 14.28-6.03 21.07-1.73 4.64-1.19 9.88-3.68 14.28-3.3 6.86-3.83 15.7-10.21 20.63-6.22-.21-12.42 1.01-18.63.28-3.23.47-6.47.02-9.66-.51-2.27 3.69-1.15 8.22-2.57 12.2-1.17 3.81-.23 7.7.63 11.46 3.34 1.08 6.85.48 10.3.55.41 6-.16 12.01-.84 17.97.5 10.65-1.18 21.26-1.28 31.92-.43 12.34-1.64 24.66-1.74 37.02h-53.31c-.99-11.72-3.12-23.32-4.15-35.04-1.48-15.57-4.47-31.06-3.85-46.76 3.5-.33 7-.69 10.52-.73.35-1.1.67-2.19 1.01-3.27.64-.96 1.97-1.73 1.61-3.06-.88-6.97-4.44-13.13-6.73-19.66 4.64-1.05 9.42-.63 14.14-.79 1.7-1.05 3.58-1.76 5.47-2.41-.54-1.61-1.06-3.22-1.74-4.77-4.14.12-8.27-.12-12.39-.43-6.35.35-12.77.95-19.1.05-.02-.75-.05-2.26-.06-3.02-1.19-.58-2.37-1.15-3.54-1.72-.68.24-2.03.72-2.71.95-.41.77-1.23 2.3-1.64 3.06-.73-2.27-1.42-4.56-2.31-6.77-.62-.23-1.86-.67-2.48-.89-5.48 2.91-10.48 6.64-16.04 9.42-8.5 4.33-16.33 9.85-24.81 14.21-7.07 3.83-13.53 8.68-20.59 12.52-6.36-7.23-8.99-16.69-14.05-24.74-4.06-7.78-8.91-15.16-12.55-23.15-1.26-2.21 1.56-3.01 2.96-3.93 9.83-5.05 18.68-11.92 28.99-16.01 9.18-5.04 19.2-8.25 28.76-12.45 5.81-2.65 13.48-2.6 17.17-8.57.27-2.62-.68-5.12-1.31-7.6 2.95-1.37 6.06-2.32 9.14-3.37-.13-8.06.39-16.14-.49-24.16-.33-4.09.73-8.19-.22-12.24-1.33-7.11-.29-14.78-3.35-21.47-3.29-3.08-7.93-4.12-11.84-6.2-4.92-2.65-10.57-.13-15.29 1.76-1.46-5.25-4.05-10.59-9.12-13.21-3.49-1.54-7.02-3.06-10.68-4.14-3.49-1.01-6.75 1.26-9.42 3.23-2.54.2-4.81-.76-6.74-2.35 6.2-14.43 10.98-29.43 17.53-43.71 5.91 3.31 10.9 7.94 16.47 11.75 8.33 6.8 17.2 12.9 26.3 18.62 5.52 3.31 12.58 6.06 18.71 2.63 3.77-2.68 3.61-7.79 4.79-11.83-4.12-16.04-7.82-32.19-12.04-48.2-5.1-17.32-8.58-35.03-13.11-52.49-2.93-12.82-6.58-25.46-9.78-38.2-1.95-9.53-4.92-18.81-6.77-28.35-1.91-8.63-4.38-17.11-6.71-25.63-1.59-6.69-2.67-13.51-4.67-20.1-3.51-11.81-6.42-23.78-9.33-35.73 4.58 2.78 9.54 4.9 14.19 7.57.69 10.02 6.38 18.75 8.66 28.4-.3 3.75-2.82 7.13-2.13 10.98.29 8.1 6.13 14.44 7.7 22.18.8 3.42 2.85 6.38 4.88 9.17 3.27 2.46 7.64 1.74 11.42 1.34 4.64-1.13 9.95-2.07 12.98-6.15 1.77-2.18 4.23-3.63 6.15-5.64 1.62-2.36 2.75-5.05 4.74-7.15 1.42-.07 2.83-.22 4.23-.45.34.08 1.01.23 1.35.31-.16-.98-.47-2.95-.63-3.93 5.46 0 11.01.11 16.31-1.39 2.07-.41 4.81-2.03 6.38.22 5.01 5.1 12.2 7.05 17.56 11.69 4.56 3.81 10.23 6.11 16.07 7.01 2.79.16 5.59.35 8.33.94-.71-5.06 3.01-8.79 4.54-13.24-.07-3.34-.78-6.71.19-10 2.1-9.51-3.98-17.82-5.94-26.74-.9-3.28 1.15-6.3 1.9-9.39 1.62-4.4 1.22-9.13 1.15-13.73-.1-5.34-2.47-10.24-4.14-15.22 4.99-5.9 10.46-11.35 15.4-17.28m-73.1 112.73c-2.13 4.53.95 8.98 4.9 11.1 4.29.85 7.68-2.12 9.86-5.45.92-4.08.34-9.05-3.88-11.03-4.54-2.57-7.97 2.69-10.88 5.38m8.74 58.18c-1.78 2.51-3.64 5.58-2.3 8.74.68 3.46 3.71 5.6 7.02 6.17 1.81-1.2 3.62-2.4 5.5-3.48 1.05-3.08 2.51-6.64.58-9.68-.73-2.99-4.26-3.07-6.68-3.71-1.36.69-2.73 1.35-4.12 1.96m-36.84 157.39c1.62 16.24 2.44 32.54 2.36 48.86.55.46 1.67 1.37 2.23 1.82 7.46-.84 14.99-.46 22.37-2.02 2.37-4.82 1.81-10.36 1.19-15.52.62-3.44-.45-6.92-.13-10.39-1.28-1.26-2.43-2.77-4.17-3.39-5.83-.04-11.26 2.34-16.22 5.22.11-1.92-.85-4.34.95-5.74 2.66-2.26 5.87-3.81 9.14-4.99 2.91-.89 6.2-2.18 8.98-.13 1.87-1.36 2.43-3.5.8-5.3-.35-3.68 1.04-8-1.76-11.01-8.62 0-17.5-.37-25.74 2.59m94.61 1.87c-.93 1.2-1.29 2.76-1.59 4.22-.64 5.83-.98 11.69-1.77 17.5-.62 3.73.92 7.44.2 11.19-.23 4.18-1.16 8.41-.55 12.59-.32 1.25-.65 2.5-.97 3.76 1.36 4.57-1.14 9.28-.54 13.98-.82 11.7-1.53 23.45-3.23 35.08.03 5.74-.33 11.56-1.9 17.11 3.23 5.03 10.28 2.03 15.19 2.31 3.99-3.11 6.12-7.93 8.82-12.09 2.11-6.94 3.45-14.13 4.21-21.34l1-2.43c1.15-13.33 3.78-26.49 6.22-39.63 1.41-7.48 1.62-15.16 3.56-22.54.42-2.09 1.4-4.43.1-6.39-5.89-5.38-13-9.03-19.74-13.2-2.77-1.89-6.04-.63-9.01-.12z"/><path d="M164.73 116.84c.66-2.85 2.77-5.28 5.24-6.76 3.38-.95 6.54 1.71 7.1 4.96 1.32 9.83-1.04 19.6-2.9 29.2-.86 3.76-2.35 7.33-3.71 10.93-2.31 8.48-6.27 16.71-12.21 23.23-.15-3.23 1.18-6.21 1.89-9.3.73-2.93.81-5.98 1.52-8.92 1.15-3.99.23-8.17.79-12.23.44-3.25 1.17-6.52.73-9.82.18-7.12.33-14.25 1.55-21.29z"/><path d="M202.87 113.95c2.6-2.09 5.63-4.49 9.19-3.95 2.18-.04 4.24 1.73 4.31 3.95.56 4.75-1.6 9.19-1.94 13.87-.26 3.66-.89 7.26-1.77 10.82-.48 6.21-1.26 12.39-2.39 18.52-.48 2.76-2.68 4.73-4.17 6.97-4.99 7.28-11.28 13.56-16.25 20.85-3.46 6.08-7.6 11.96-9.08 18.92-1.57 7.66-1.78 15.56-3.68 23.17-1.4 5.55-1.11 11.58-4.01 16.68-3.02 6.6-8.49 11.56-13.92 16.18-1.47-3.74-.64-7.94-1.55-11.84-.97-13.67-.98-27.39-2.01-41.05 3.92-.7 5.82-4.44 8.82-6.6 8.08-6.22 12.29-15.77 17.76-24.08 6.69-12.82 9.09-27.22 11.71-41.27.16-7.86 4.11-15.17 8.98-21.14z"/><path d="M60.13 135.19c3-1.69 6.42-2.29 9.65-3.37 9.66 5.4 18.07 12.75 26.64 19.69 3.01 1.51 3.49 5.03 5.31 7.55 3.84 6.11 10.08 10.43 13.2 17.04-.19 2.85-3.26 3.98-5.02 5.81-2.43-.03-5.34.45-7.13-1.62-5.21-5.79-10.45-11.65-16.61-16.48-9.16-2.42-18.54-4.36-27.23-8.23l-2.01 1.21c-3.89-.94-6.02 3.48-9.32 4.74-.83-7.37.02-14.75.37-22.11 4.08-1.33 8.38-2.1 12.15-4.23z"/><path d="M499.06 143.13c2.17-1.1 4.56-1.67 6.84-2.5.69 1.09 1.38 2.19 2.07 3.29.61 4.56 3.72 8.43 3.51 13.16-1.02 4.99-3.56 9.56-3.81 14.73.51 2.04.86 4.12 1.15 6.21.74 5.71 5.59 10.43 4.78 16.37-1.17-1.21-1.95-2.71-2.57-4.26-1.36-.7-2.99-.99-4.11-2.04-.92-2.24-1.74-4.55-3.4-6.38.78-.95 1.57-1.9 2.37-2.84-1.15-1.02-2.32-2-3.52-2.93 2.01-1.55 2.84-4.48.15-5.84 1.07-2.01 1.85-4.16 2.65-6.28-1.79-1.22-4.01-2.19-6.2-1.76-1.16.88-2.14 1.97-3.17 3-1.15.36-2.31.74-3.44 1.12 2.17-5.17 6.91-8.49 9.6-13.34-1.35-1.76-3.58-3.54-5.92-2.43-6.69 3.56-11.31 9.87-17.41 14.17-.43-1.75-1.39-4.24.74-5.27 6.94-4.94 13.02-10.92 19.69-16.18z"/><path d="M402.3 150.57c2.24.25 4.32 1.11 6.31 2.13 2.1 1.22 4.76.64 6.82 1.98 5.97 3.44 12.37 6.16 18.03 10.13 2.77 1.45 5.87 2.15 8.71 3.45.07.59.23 1.77.3 2.36-4.85-.36-8.82-3.61-13.56-4.49-3.28-1.76-7.03-2.2-10.46-3.56-3.26-1.29-5.32-4.42-8.44-5.93-.93.78-1.82 1.59-2.67 2.44.68 1.86.57 4.14 1.85 5.72 4.67 3.55 10.18 5.55 15.62 7.59-1.63.41-3.2 1.03-4.86 1.28-2.66-.05-5.1-2.07-7.77-1.52-1.09.99-1.8 2.35-1.61 3.85.06 3.02-.26 6.01-.51 9.02 1.21 4.42 2.31 8.92 4.25 13.1-2.01 3.95-2.94 9.67.5 13.1 1.58 1.71-.15 4.15-.29 6.14-1.62-4.39-2.5-9.05-4.61-13.27-2.06-3.89-3.5-8.07-4.71-12.29-.95-3.61.91-7.11.9-10.71 0-3.18-.85-6.27-1.52-9.34-.79-4.42-4.79-7.95-4.05-12.69.55-2.84 1.26-5.64 1.77-8.49z"/><path d="M45.3 177.34c3.93-4.14 7.59-8.54 11.34-12.84 4.51.68 8.9 2.14 13.51 1.99 4.71.86 9.15 2.79 13.84 3.78 3.04 1.79 4.69 5.18 7.32 7.48 3.59 4.09 7.89 7.46 11.44 11.57 1.15 1.18 2.45 2.2 3.78 3.17 1.82 2.44 3.7 4.84 5.19 7.51-.95.87-1.51 2.3-2.8 2.73-4.86 1.3-10.03 3.44-15.02 1.34-4.7-2.28-9.34-5.07-12.6-9.25-2.12-2.83-5.68-3.78-8.65-5.39-3.28-.61-6.6.55-9.88.82-1.4-.59-2.88-.96-4.39-1.16-.32 2.24-.46 4.5-.54 6.76 5.79 2.56 12.2-1.13 17.89 1.52 3.6 4.05 6.68 8.6 10.85 12.11 4.12 3.39 9.84 3.6 14.13 6.71 3.84 2.79 8.28 4.85 11.51 8.42 2.56 2.91 5.86 5.16 7.99 8.46 3.86 5.67 6.69 11.95 9.61 18.13 1.74 3.11-1.39 7.06 1.43 9.78 2.57-4.37 4.01-9.93 2.01-14.79-2.8-6.94-6.41-13.56-10.57-19.78-1.76-2.93-4.99-4.51-6.87-7.35-2.67-2.31-5.33-4.64-8.16-6.74 3.55-2.13 6.52-5.06 8.92-8.41 4.93 4.01 10.97 6.03 16.73 8.51 1.24 6.01.65 12.19 2.01 18.18.56 14.63 1.51 29.32 3.63 43.79-1.77 1.36-3.84 2.22-5.84 3.17-3.82-2.97-8.72.15-12.96-1.18-3.96-.44-7.04-3.39-10.95-3.94-4.66-.62-8.82-2.98-12.95-5.05-4.64-4.34-10.83-6.91-14.53-12.23-4.52-4.38-7.53-9.96-10.11-15.63-7.7-11.54-14.42-23.79-23.72-34.18-2.5-2.38-3.53-5.97-6.48-7.9-.95-2.12-2.97-4.09-2.37-6.6.75-4.97 2.68-9.88 6.26-13.51z"/><path d="M448.05 168.29c4.93-1.22 10.03-1.6 15.1-1.27 1.46-.08 2.24 1.35 3.22 2.18-4.15-.33-7.96 2.21-12.1 1.37-1.69-.52-2.73 1.02-3.59 2.13.76 1.92.71 4.01-1.07 5.4-2.21-2.8-1.7-6.49-1.56-9.81z"/><path d="M140.02 208.91c3.16-.03 6.3-.27 9.44-.61.81 2.12-.03 4.36-.06 6.54.69 1.26 1.86 2.47 1.68 4.04-.27 7.76 1.09 15.44 1.2 23.19.43 4.98 1.63 9.89 1.64 14.9.04 3.9 1.33 7.94-.49 11.64 2.22 3.07 1.35 6.89 1.72 10.41.89 6.23.07 12.55.6 18.81.03 3 .9 6.26 3.27 8.28 3.59.8 7.27-.67 10.93-.27 10.2.95 19.84 4.8 29.25 8.67 1.67.6 3.46.76 5.22 1.01 1.21 2.67 4.75 3.13 5.22 6.2-4.84 4.08-11.27 4.41-16.82 6.97-8.21 2.52-16.74 3.75-25.16 5.34-6.06 2.25-12.63 1.3-18.95 1.18-10.99-.13-21.82-2.72-32.85-2.33-3.36-.76-6.71-1.57-10.02-2.49-1.4-.13-1.89-1.58-2.62-2.53-.63-.81-1.27-1.62-1.91-2.41.11-1.6.34-3.19.89-4.7 5.05-2.45 9.98-5.12 15.11-7.4 8.96-2.98 18.13-6.64 27.78-5.61.85-1.14 2.71-2.1 1.97-3.79-1.37-7.59-1.54-15.3-2.08-22.97.38-8.71-1.61-17.28-1.69-25.97 0-1.69-.06-3.38-.39-5.03-.12-8.42-.58-16.81-1.07-25.2.17-5.35.37-10.86-1.81-15.87z"/><path d="M161.57 268.56c2.94-1.9 4.03-5.73 7.31-7.17.06 6.51.41 13.07-.45 19.55-.33 6.66.85 13.26 1.24 19.89-2.28.03-4.57.09-6.85-.07-2.59-8.53-1.64-17.62-3.21-26.32-.46-2.17-.15-4.7 1.96-5.88z"/><path d="M83.91 269.7c2.08.75 4.3 1.11 6.27 2.12 4.3 2.55 7.67 6.52 12.28 8.56 7.07 1.9 14.43 2.07 21.55 3.73 3.05-.32 6.01-1.46 9.13-1.04 2.49.25 3.92-2.22 6.05-3.04.32 3.03-.08 6.13.64 9.12 1.19 4.47.48 9.14.68 13.71-4.38.6-8.65 1.81-12.98 2.66-6.63 2.67-13.59 4.57-19.96 7.92-4.86 2.77-10.84 5.11-12.5 11.06-3.5-1.82-7.65-2.44-10.52-5.32-1.9-1.83-4.95-2.66-5.86-5.33-.65-6.27.4-12.49 1.06-18.7.01-8.65 1.81-17.17 4.16-25.45z"/><path d="M175.24 302.21c-3.43.72-2.73-3.22-1-4.6.37 1.52.7 3.05 1 4.6z"/><path d="M61.3 387.29c6.25.06 12.51-.02 18.76.04 2.38 11.88 4.19 23.88 7.02 35.65 2.99-11.78 6.71-23.38 9.48-35.22 6.15-1.01 12.56-.21 18.82-.41 3.46 11.56 6.37 23.28 9.86 34.84 2.37-11.64 5.02-23.22 7.08-34.92 6.23.07 12.46.05 18.69.01-4.52 21.43-9.44 42.77-14.05 64.18-6.54-.05-13.09.16-19.63-.14-3.42-13.54-7.73-26.85-11-40.43-3.95 13.47-7.59 27.03-11.29 40.57-6.53.03-13.07-.02-19.6.02-4.5-21.44-9.51-42.78-14.14-64.19z"/><path d="M174.29 387.26c7.64.14 15.28-.03 22.92.1 7.29 21.49 15.63 42.62 22.88 64.13-6.79-.04-13.58-.01-20.37-.02-1.34-3.46-1.81-7.25-3.54-10.53-7.26-.16-14.53-.07-21.8-.02-1 3.44-2.1 6.87-2.93 10.36-6.74.42-13.51.05-20.26.23 7.51-21.49 15.5-42.8 23.1-64.25m4.29 39.69c4.59-.04 9.19.02 13.78-.07-2.41-7.69-4.62-15.44-6.97-23.15-2.14 7.78-4.6 15.46-6.81 23.22z"/><path d="M226.42 387.32c12.55.02 25.1-.08 37.64.04 4.66.6 9.82.7 13.62 3.86 7.16 5.41 8.11 16.51 3.39 23.82-2.74 4.35-7.67 6.69-12.51 7.85 6.23 2.24 9.84 8.27 12.49 13.98 2.66 4.85 5.21 9.77 7.91 14.61-7.33-.03-14.66 0-21.98-.01l-.63-.5c-3.89-7.2-7.55-14.53-11.63-21.62-1.56-3.25-5.33-4.33-8.67-4.28-.2 8.8-.04 17.59-.09 26.39-6.51.01-13.02.01-19.53 0-.02-21.38 0-42.76-.01-64.14m19.54 12.81v12.86c5.24-.12 10.77.67 15.71-1.49 3.88-2.29 3.67-8.9-.66-10.54-4.86-1.54-10.04-.58-15.05-.83z"/><path d="M299.55 419.1c-.02-2.39-.21-4.8.15-7.17 3.46-.16 6.93-.04 10.4-.05v7.21c-3.52 0-7.04 0-10.55.01z"/><path d="M319.61 424.62c4.71-3.34 10.94-3.02 16.4-2.32 3.81.33 6.56 3.41 8.18 6.64-3.43.58-6.88 1.06-10.34 1.33-.38-.55-1.13-1.64-1.5-2.19-1.98-.85-4.09-.71-5.97.29l-.08 2.65c4.61 1.62 9.74 1.08 14.19 3.23 3.5 1.61 5.96 5.9 4.4 9.66-1.94 4.59-7.07 6.9-11.82 6.99-5 .14-10.7.22-14.69-3.29-1.16-1.51-2.05-3.21-2.98-4.86 3.47-.61 7-.86 10.49-1.37 1.03 1.91 2.45 4.44 5.04 4 2.29.22 5.08-2.35 3.14-4.51-4.81-1.78-10.42-1.28-14.73-4.4-3.37-3-3.41-9.08.27-11.85z"/><path d="M299.51 422.47c3.53-.02 7.06-.02 10.58 0 .01 9.3.02 18.59 0 27.88h-10.57c-.01-9.29 0-18.59-.01-27.88z"/><path d="M63.03 465.4c7.97.08 15.94-.06 23.91.05 5.04.06 10.5 4.18 10.11 9.57.1 3.43-2.74 5.87-5.28 7.71 2.24 1.48 5.2 2.59 5.99 5.45 2.19 4.67.62 11.02-3.97 13.63-2.58 1.66-5.78 1.69-8.73 2.05-7.36.13-14.73 0-22.1.05.04-12.84-.08-25.68.07-38.51m11.64 7.84c0 2.21 0 4.43-.03 6.65 2.76.04 5.52.03 8.29.09 1.81-1.16 2.57-2.98 2.51-5.1-3.08-2.49-7.13-1.51-10.77-1.64m0 13.95c0 2.58 0 5.16-.03 7.75 3.64-.23 7.83 1 11.04-1.19 1.62-.84 1.54-2.99.98-4.46-2.96-3.56-8.01-1.71-11.99-2.1z"/><path d="M104.79 465.46c3.91-.07 7.81-.05 11.72-.04.05 8.21-.09 16.43.05 24.64.2 5.77 8.65 7.4 11.95 3.31 1.3-1.42 1.44-3.5 1.42-5.32.01-7.55-.09-15.1.05-22.65 3.87.02 7.75.02 11.63.02-.03 8.18.07 16.37-.03 24.55-.51 4.62-2.49 9.59-6.74 11.96-4.96 3.07-11.13 2.87-16.71 2.17-4.53-.42-9.21-2.87-11.23-7.1-1.58-3.05-2.13-6.53-2.12-9.93.03-7.2.03-14.4.01-21.61z"/><path d="M151.35 469.37c3.17-3.54 8.21-4.31 12.7-4.53 3.93-.18 7.97.49 11.48 2.31 3.4 1.84 4.34 5.92 5.39 9.32-3.9-.02-7.76.41-11.64.78-.86-1.56-1.01-3.79-2.77-4.64-1.29-.81-2.9-.41-4.32-.58-1.14 1.39-1.77 3-1.65 4.82 5.64 1.92 11.86 2.48 16.96 5.79 4.63 3.45 5.69 10.47 2.45 15.2-3.29 5.34-10.13 6.88-15.99 6.67-4.63-.15-9.92-.7-13.14-4.44-2.41-2.32-2.94-5.8-3.93-8.84 3.89-.1 7.75-.59 11.64-.8.91 1.96 1.41 4.47 3.52 5.56 2.53 1.54 6.69.89 7.82-2.13.62-1.35-.51-2.67-.73-3.96-5.26-2.36-11.42-2.4-16.17-5.89-4.76-3.13-5.37-10.48-1.62-14.64z"/><path d="M188.49 465.42c3.9-.01 7.81-.03 11.71.04-.03 12.82.01 25.63-.01 38.45-3.91 0-7.82.01-11.72-.03.04-12.82 0-25.64.02-38.46z"/><path d="M234.24 465.43c3.72-.02 7.43-.02 11.15 0-.01 12.82 0 25.65 0 38.47-3.71-.07-7.43.22-11.11-.16-5.01-6.97-9.53-14.29-14.44-21.34-.22 7.16-.05 14.33-.1 21.49-3.72.02-7.44.02-11.16.02 0-12.83-.01-25.66.01-38.48 3.75.1 7.55-.33 11.27.25 5 7 9.21 14.55 14.31 21.49.14-7.25.01-14.5.07-21.74z"/><path d="M253.21 465.42c10.58-.02 21.17.03 31.75-.03.04 2.97.04 5.95.04 8.93-6.68.02-13.36.02-20.04.01-.02 1.86-.04 3.73-.05 5.6 6.14.01 12.27-.01 18.41.01 0 2.58 0 5.15.03 7.74-6.14.12-12.28.03-18.42.06V495c6.89.02 13.77-.06 20.66.05-.03 2.94-.03 5.89-.01 8.84-10.79.04-21.59.02-32.38.01 0-12.83-.01-25.66.01-38.48z"/><path d="M296.22 467.21c4.5-2.36 9.83-2.69 14.81-2.17 3.38.67 7.35 1.44 9.35 4.56 1.54 2.01 2.09 4.52 2.77 6.91-3.86-.06-7.69.34-11.52.75-.92-1.69-1.3-3.94-3.17-4.86-1.21-.26-2.42-.45-3.65-.55-1.22 1.31-3.35 3.98-.96 5.26 5.4 1.92 11.53 2.35 16.27 5.84 4.88 3.83 5.22 11.7 1.12 16.22-4.15 4.94-11.17 5.7-17.21 5.27-3.72-.5-7.93-.96-10.55-3.99-2.66-2.32-3.27-5.96-4.36-9.12 3.85-.25 7.69-.68 11.55-.9 1.14 2.73 2.73 6.53 6.31 6.29 2.46.34 4.91-1.23 5.5-3.66-.24-1.59-1.04-3.36-2.72-3.8-5.45-2.05-11.98-2.25-16.24-6.71-4.07-4.58-2.66-12.4 2.7-15.34z"/><path d="M335.66 466.71c4.22-1.78 8.93-2.16 13.47-1.73 3.62.64 7.87 1.48 9.95 4.88 1.41 1.95 1.95 4.33 2.63 6.6-3.94.01-7.85.43-11.76.78-.5-1.29-.96-2.59-1.4-3.89-1.6-1.11-3.5-1.37-5.39-1.45-1.11 1.35-2 2.86-1.98 4.67 5.54 2.46 12.02 2.56 17.1 6.1 4.9 3.55 5.69 11.11 2 15.79-3.84 5.39-11.14 6.4-17.29 6.01-3.95-.4-8.43-1.03-11.2-4.2-2.56-2.35-3.25-5.91-4.02-9.13 3.83.02 7.64-.48 11.46-.74.97 2.04 1.63 4.55 3.75 5.74 1.49.67 3.17.5 4.76.7 1.37-1.1 2.59-2.38 3.61-3.81-1.44-4.75-6.87-4.77-10.81-5.93-3.97-1.19-8.5-3.05-10.1-7.21-2.36-4.85.43-11.06 5.22-13.18z"/></g><path d="M468.23 168.24c.53.59.53.59 0 0z" fill="#848684"/><path d="M468.23 170.26c.53.49.53.49 0 0z" fill="#4c4e4c"/><path d="M174.26 296.27c.5.51.5.51 0 0z" fill="#444644"/><path d="M526.16 449.21c3.25.28-1.59 3.04 0 0z" fill="#dcdedc"/></svg>