<?xml version="1.0" encoding="UTF-8" standalone="no"?>
<!-- Created with Inkscape (http://www.inkscape.org/) -->

<svg
   xmlns:dc="http://purl.org/dc/elements/1.1/"
   xmlns:cc="http://creativecommons.org/ns#"
   xmlns:rdf="http://www.w3.org/1999/02/22-rdf-syntax-ns#"
   xmlns:svg="http://www.w3.org/2000/svg"
   xmlns="http://www.w3.org/2000/svg"
   xmlns:sodipodi="http://sodipodi.sourceforge.net/DTD/sodipodi-0.dtd"
   xmlns:inkscape="http://www.inkscape.org/namespaces/inkscape"
   width="920"
   height="350"
   viewBox="0 0 920.00001 350.00001"
   id="svg2"
   version="1.1"
   inkscape:version="0.91 r13725"
   sodipodi:docname="header-fullsize.svg">
  <defs
     id="defs4" />
  <sodipodi:namedview
     id="base"
     pagecolor="#222222"
     bordercolor="#666666"
     borderopacity="1.0"
     inkscape:pageopacity="1"
     inkscape:pageshadow="2"
     inkscape:zoom="0.98994949"
     inkscape:cx="317.92685"
     inkscape:cy="232.22443"
     inkscape:document-units="px"
     inkscape:current-layer="layer1"
     showgrid="false"
     units="px"
     inkscape:window-width="1920"
     inkscape:window-height="1017"
     inkscape:window-x="1912"
     inkscape:window-y="-8"
     inkscape:window-maximized="1" />
  <metadata
     id="metadata7">
    <rdf:RDF>
      <cc:Work
         rdf:about="">
        <dc:format>image/svg+xml</dc:format>
        <dc:type
           rdf:resource="http://purl.org/dc/dcmitype/StillImage" />
        <dc:title />
      </cc:Work>
    </rdf:RDF>
  </metadata>
  <g
     inkscape:label="Layer 1"
     inkscape:groupmode="layer"
     id="layer1"
     transform="translate(0,-702.36216)">
    <g
       id="estrella2"
       transform="matrix(0.04259737,0,0,0.04259737,298.92869,725.16176)"
       style="fill:#ffffff">
      <polygon
         style="fill:#ffffff"
         points="1435,7146 1991,4535.3 0,2729.5 2665.5,2459.3 3756.9,0 4848.3,2459.3 7513.8,2729.5 5522.8,4535.3 6078.8,7146 3756.9,5818.3 "
         id="polygon4139" />
    </g>
    <g
       id="linterna"
       transform="matrix(0.04259737,0,0,0.04259737,298.92869,725.16176)"
       style="fill:#222222">
      <g
         id="g4142"
         style="fill:#222222">
        <path
           style="fill:#222222"
           inkscape:connector-curvature="0"
           d="m 2747.3,4295.8 c 160.3,-79.3 415.6,-146.4 685.3,-98.7 0.1,11.5 7.6,155.2 7.6,155.2 l -86.5,-7.1 -89.7,72.4 -88.1,125.9 -91,103.3 -8.7,28.9 19,66 57.9,38 56.7,15.7 145.5,-50.4 51.4,-31.4 50,10.5 c 0,0 193.6,1752.3 184.9,1757.1 -117.9,65.1 -192.4,92.9 -329.1,54.6 -9,-60.9 -275.7,-1118.4 -275.7,-1118.4 l 48.8,-52 36.1,-27.2 10.4,-30 1.2,-61.3 -29.5,-39.2 43,-15 34.7,-18 24,-31.8 3,-47.8 -21.8,-63.7 -28.4,-19.8 -15.4,-12.2 25.8,-72.3 -47.2,-97.4 -54.2,-28 -68.9,0 -67.6,11.3 -1.7,-6.4 40.8,-26.4 13.7,-73 -19.1,-63 -42.5,-39.4 -53.4,-7.9 -32,-10.4 -26.5,-42.1 -62.8,-248.6 z"
           id="path4144" />
      </g>
      <path
         style="fill:#222222"
         inkscape:connector-curvature="0"
         d="m 3429.4,4108.5 c 0,0 -132.5,-32.7 -420.9,15.4 -198.9,33.2 -293.9,96.2 -293.9,96.2 L 2594,3612.2 c 0,0 111.7,-93.2 364.5,-131 256.6,-38.4 401.8,8.1 396.6,8.7 l 74.3,618.6 z"
         id="path4146" />
    </g>
    <g
       id="fuego"
       transform="matrix(0.04259737,0,0,0.04259737,298.92869,725.16176)"
       style="fill:#222222">
      <path
         style="fill:#222222"
         inkscape:connector-curvature="0"
         d="m 3629.1,1855.2 c -0.4,-24.9 17.2,-47.6 39.2,-59.3 22,-11.7 47.7,-14.3 72.7,-14.4 34.6,-0.1 69.1,4.2 102.6,12.7 -3.5,17.4 -20.8,27.9 -37,35.2 -55,24.8 -115.9,36.5 -176.2,33.8 l -1.3,-8 z"
         id="path4149" />
      <path
         style="fill:#222222"
         inkscape:connector-curvature="0"
         d="m 5279,2558.9 c 115.5,-4.5 229.2,26.1 340.8,56.4 16.6,4.5 33.5,9.2 48.1,18.3 -45.5,42.4 -113.9,52.3 -175,40.8 -61.1,-11.5 -116.9,-41.6 -171.5,-71.3 -22.7,-12.3 -45.4,-24.7 -68.1,-37 7.9,-6.8 15.6,-2.9 21.4,-6.3 l 4.3,-0.9 z"
         id="path4151" />
      <path
         style="fill:#222222"
         inkscape:connector-curvature="0"
         d="m 5810.2,2816.9 c 70.3,8.7 139.9,22.1 208.4,39.9 102.1,26.6 207.7,67.6 270.1,152.8 -150.8,1.8 -290.5,-73 -422.6,-145.8 -21,-11.6 -42.8,-23.9 -56,-43.9 l 0.1,-3 z"
         id="path4153" />
      <g
         id="g4155"
         style="fill:#222222">
        <g
           id="g4157"
           style="fill:#222222">
          <path
             style="fill:#222222"
             inkscape:connector-curvature="0"
             d="m 3356.3,2620.9 c 27,34.4 67.8,57.6 111.2,63.2 -173.7,16 -341.2,92.5 -467,213.3 l -11.6,5 c -9.7,-59.8 14.1,-121.1 50.9,-169.1 36.8,-48 85.8,-85.1 134.2,-121.5 73.8,-55.6 154.7,-113.6 247.1,-113.6 94.6,0.1 176.8,61 265.9,92.7 217.5,77.5 474.8,-20 682.1,81.8 -80.3,3.9 -160.6,7.8 -241,11.8 155.7,15.5 309,54 453.6,113.8 208.1,86.1 398.3,216.3 615.3,276.7 100.9,28.1 206.6,40.8 303.2,81.5 96.5,40.7 186.4,118.2 204.2,221.4 -113.8,-57.5 -228.3,-113.6 -343.6,-168.2 l 18,14.5 c 65.5,131.3 194.6,218 324.2,286.7 125.2,66.4 258.4,123.3 364.4,216.9 -190.9,-175 -290.6,-427.5 -442.2,-638.2 -211.4,-293.7 -531.9,-507 -884.5,-588.6 67.6,-3 134.8,-13.9 199.9,-32.5 -237.1,-141.5 -537.9,-88.5 -809,-141 -149.6,-29 -290.5,-90.5 -430,-151.7 -108,-47.3 -216.1,-94.7 -324.1,-142 l 3.2,-4.6 c 7.5,-38.5 25.8,-74.9 52.2,-103.9 -75.6,39.4 -165.4,39.5 -250.2,30.3 -84.8,-9.2 -169.6,-26.7 -254.6,-19.2 l -11.7,1.5 c -64.9,2 -129.8,3.9 -194.7,5.9 -76.2,2.3 -158.6,6.9 -217,55.7 -42.6,35.6 -65.6,90.2 -75.5,144.9 -7,38.7 -8.8,79.8 -28.5,113.9 -19.8,34.1 -66.4,57.1 -99.3,35.4 2.3,33.1 4.1,68.5 -12.4,97.3 -9.7,16.9 -24.9,29.8 -39.6,42.6 -80.4,69.7 -158.9,149 -191.4,250.3 -34.2,106.5 -12.9,221.9 8.7,331.7 13.5,68.8 29.1,141.7 77.9,192.2 24.4,25.3 55.5,42.9 86.1,60.3 93.6,52.9 187.3,105.9 280.9,158.8 34.1,19.3 263.6,148.6 359.4,-94.4 l -9.9,-11 c -43.5,-70.7 -94.6,-136.7 -152.1,-196.6 -15.2,-15.8 -32.3,-32 -54,-35.4 -33.6,-5.3 -64.3,21.8 -98.2,24.1 -50.3,3.4 -87.3,-46.4 -105.6,-93.3 -41.7,-106.7 -40,-229.6 4.7,-335.1 27,15.6 54,31.3 80.9,46.9 -1.7,-66.9 -3.4,-133.9 -5.1,-200.8 17.5,43 35.1,86 52.8,128.9 63.6,-130.8 158.3,-246.4 274.1,-334.5 l -7.5,15.1 c -30.2,72 -60.4,144 -90.6,216 -11.6,27.7 -23.3,55.7 -29.2,85.1 -6,29.9 -5.9,60.6 -3.6,91 9.7,127.8 58.1,250 119.6,362.4 34.5,63 84.2,130.6 156,134.4 20.8,-52.1 31.7,-108.2 31.8,-164.4 2.3,43.2 16.9,85.7 41.8,121.1 57.2,-49.4 156.2,-37.3 199.9,24.4 -107.8,25.6 -215.6,51.3 -323.4,76.9 133.8,8 286.3,92.7 401.5,24.1 155.4,-92.7 386,-41 525.4,-5 139.4,36 301.5,63.4 415.8,-24.1 -139.1,-80.3 -288.6,-142.5 -443.6,-184.6 273.1,45.7 555,94.7 786.6,246.4 -24.7,-0.5 -49.5,-0.9 -74.2,-1.4 180.3,215.1 453.4,349.5 733.8,361.2 -90,-73.1 -187.5,-137 -290.4,-190.5 182.2,72.7 366.3,140.7 552,204.1 165.8,56.6 337.8,110.2 512.7,98.9 -300.8,-135 -545,-367.5 -813.3,-559.1 C 4706.8,2863.2 4034.9,2638.4 3356.3,2620.9 Z M 4358.4,2521 c 35.3,-29.7 80,-32.1 126.6,-30.3 80,3.1 159.5,18.6 234.9,45.6 -29.7,25.3 -72.2,27.2 -111.2,27.8 -31.6,0.5 -63.3,1 -94.9,1.6 -58.8,1 -121.2,1 -171.6,-29.4 l 16.2,-15.3 z m -1803.1,653.4 c 53.6,6 96.3,18.7 146.5,38.5 29.8,11.8 61.8,25.3 78.4,52.7 -88.8,12.1 -182.6,-20.7 -244.5,-85.6 l 19.6,-5.6 z M 3738.6,3102 c -0.5,2 -2.2,3.5 -3.8,4.8 -39.2,31.3 -100.6,41.5 -138.3,8.4 l 16.1,-5.6 c 37.6,-16.2 80.2,-32.5 118.2,-17.2 4.2,1.7 9,5.2 7.8,9.6 z m -30.3,-175.8 c -110.2,27.7 -224.4,39.8 -338,35.7 l 20.4,-8.7 c 55.2,-31.8 118.1,-50.1 181.8,-52.7 10.9,-0.4 22.1,-0.5 32,-5.2 9.9,-4.7 17.8,-15.3 15.4,-25.9 -6.1,-26.8 -58.1,-13.6 -66.8,-39.6 11.4,-6.6 25.3,-6.9 38.4,-7.1 58.9,-0.8 117.7,-1.5 176.6,-2.3 3.9,41.8 -64,64 -59.8,105.8 z m 880.3,152.5 c -53.2,-15.1 -106.5,-30.2 -158.5,-49.4 -38.3,-14.1 -75.7,-30.4 -113.2,-46.6 -82.7,-35.9 -165.4,-71.8 -248.1,-107.8 -0.1,-6.4 364.8,81.5 538.2,146.3 49.5,18.5 99.5,38.6 140.6,71.8 23.5,19 44.9,42.6 73.7,51.7 -77.4,-22 -155,-44 -232.7,-66 z"
             id="path4159" />
        </g>
        <g
           id="g4161"
           style="fill:#222222">
          <path
             style="fill:#222222"
             inkscape:connector-curvature="0"
             d="m 6067.4,3727.8 c 3.6,3.3 7.3,6.7 11,9.9 -3.6,-3.3 -7.3,-6.6 -11,-9.9 z"
             id="path4163" />
        </g>
      </g>
    </g>
    <path
       id="path4166"
       d="M 495.55389,861.09848"
       inkscape:connector-curvature="0"
       style="fill:none" />
    <path
       id="path4168"
       d="M 327.6734,897.0677"
       inkscape:connector-curvature="0"
       style="fill:none" />
    <g
       id="g4171"
       transform="matrix(0.96083216,0,0,0.96083216,18.017202,34.364376)">
      <g
         style="fill:#222222"
         transform="matrix(0.04433383,0,0,0.04433383,292.36271,718.95739)"
         id="g4170">
        <path
           style="fill:#222222"
           inkscape:connector-curvature="0"
           d="m 2735.1,4609.8 c 16.8,0.4 33.6,0.7 50.4,1.1 29.3,0.6 58.9,1.3 87.2,8.9 28.3,7.6 55.6,22.9 71.8,47.3 25.9,39 15,97.7 -23.1,124.8 -25.7,18.3 -58.9,22 -90.5,22.3 -40.9,0.3 -81.9,-4.3 -121.8,-13.6 -20.5,-11.2 -29.9,-35.3 -35.2,-58.1 -7.3,-31.4 -9.4,-65.7 4.8,-94.7 18.4,-37.6 59.4,-57.6 97.4,-75 5.2,-2.4 10.9,-4.8 16.5,-3.6 17.1,3.6 13.3,32.5 28.1,41.9 l -85.6,-1.3 z"
           id="path4172" />
      </g>
      <g
         style="fill:#222222"
         transform="matrix(0.04433383,0,0,0.04433383,292.36271,718.95739)"
         id="g4174">
        <path
           style="fill:#222222"
           inkscape:connector-curvature="0"
           d="m 2799.3,4852.4 c -45.2,18.6 -83.9,56.6 -96.2,103.9 -12.3,47.4 5.8,103 47.6,128.5 6.9,4.2 14.3,7.6 22.3,8.8 10.6,1.6 21.3,-0.8 31.6,-3.5 64,-16.6 124.3,-46.1 188.9,-60 28.7,-6.2 58.4,-9.3 85.5,-20.8 27.1,-11.5 51.9,-33.6 56.6,-62.6 2.4,-14.3 -0.3,-29 -4.1,-42.9 -4.2,-15.5 -10,-30.9 -20.2,-43.3 -17.7,-21.3 -46,-30.5 -73.4,-34.7 -56.5,-8.6 -114,0.1 -170.5,8.8 -22.7,3.5 -45.8,7.1 -66.6,16.8"
           id="path4176" />
      </g>
      <g
         style="fill:#222222"
         transform="matrix(0.04433383,0,0,0.04433383,292.36271,718.95739)"
         id="g4178">
        <path
           style="fill:#222222"
           inkscape:connector-curvature="0"
           d="m 2765.6,5106.8 c -13.4,10.3 -20.6,27 -22.6,43.8 -2,16.7 0.6,33.7 3.6,50.3 3,16.5 6.9,34 19,45.5 9.1,8.6 21.4,12.6 33.4,16.4 20,6.3 40.7,12.7 61.5,10 12.2,-1.6 23.7,-6.3 35.1,-10.9 17,-6.9 34.1,-13.9 51.1,-20.8 40.1,-16.3 80.4,-32.7 122.2,-43.9 22.7,-6.1 46,-10.8 67.2,-21 21.2,-10.2 40.4,-27.1 47.3,-49.6 3.4,-11.1 3.5,-23 2.2,-34.6 -2.7,-24.5 -12.7,-49.4 -32.7,-63.8 -8.2,-5.9 -17.6,-9.7 -26.9,-13.5 -4.8,-1.9 -9.7,-3.9 -14.8,-4.1 -4.4,-0.1 -8.6,1.1 -12.8,2.2 -71.8,20.1 -143.7,40.2 -215.5,60.3 -12.6,3.5 -25.1,7 -37.2,11.9 -26.2,10.6 -53.3,27.8 -80.4,20 l 0.3,1.8 z"
           id="path4180" />
      </g>
      <g
         style="fill:#222222"
         transform="matrix(0.04433383,0,0,0.04433383,292.36271,718.95739)"
         id="g4182">
        <path
           style="fill:#222222"
           inkscape:connector-curvature="0"
           d="m 2829.8,5302.2 c -14.3,8.3 -17.5,27.6 -16.4,44.2 3,42.9 26,84.5 62.1,107.9 36.1,23.4 84.7,27.2 123.1,7.7 -8.6,-12.5 -15.3,-26.2 -20.1,-40.6 26.5,-19.3 53,-38.6 79,-58.5 15.5,-11.9 31,-24.2 42,-40.3 11.3,-16.6 17.3,-36.7 16.8,-56.8 -0.3,-13.9 -4.3,-28.7 -14.7,-37.9 -6.2,-5.5 -14.1,-8.6 -22,-10.6 -20.5,-5.2 -42.7,-3.6 -62.2,4.4 -10.9,4.5 -21,10.8 -31.8,15.8 -10.9,5 -22.5,8.5 -34,12.2 -29.5,9.5 -58.4,20.4 -87.4,31.3 -12.5,4.7 -25.7,9.9 -33.9,20.5"
           id="path4184" />
      </g>
    </g>
    <g
       id="g4202"
       transform="matrix(0.04259737,0,0,0.04259737,298.92869,725.16176)"
       style="fill:#222222">
      <path
         id="path4204"
         d="m 4980.3,5290.6 c -190,-61.9 -380.8,-124.1 -560.5,-211.6 -117.8,-57.4 -232.6,-126.3 -360.9,-153.2 -32.2,-6.8 -65.9,-11.1 -94,-28.1 -24.8,-15 -65.8,-89.3 -83.1,-112.6 -0.9,-1.2 -1.7,-2.4 -2.6,-3.5 -34.3,-73.2 -68.6,-146.5 -102.9,-219.7 -24,-51.2 -53.2,-107.4 -106.8,-125.8 -34.2,-14.4 -81.2,-14.1 -122.8,-19.2 -39,-4.8 -75.8,-20.4 -114,-29.8 -38.2,-9.3 -80.8,-11.7 -114.7,8.3 -18.5,10.8 -39.9,30 -57.9,55.6 -36.2,51.4 -68.3,106.6 -113.6,150.1 -22.4,21.5 -49.9,43.8 -51.2,74.9 -1.5,33.8 29.3,60 59.5,75.3 20.2,10.3 42.2,18.4 64.9,18.3 38.4,-0.3 72.2,-23.8 103.3,-46.4 24.3,-17.7 48.7,-35.4 73,-53.1 34.1,7 49.6,19.7 83.8,20.1 -0.2,1.2 9.8,17.2 12.6,33.4 1.8,10.3 23.6,38.2 22.3,72 -7,180.9 125.5,381.7 124,453.6 -0.5,25.9 -47.6,-53.5 -47.6,-53.5 0,0 -71,-202 -86.3,-327.3 -3.1,-25.2 2.2,102.4 2.2,102.4 0,0 69.3,480.9 71.2,482.5 35,29.7 102.8,39.5 210.5,30.9 4.4,-0.3 36.1,-5 47.9,-4.8 24.6,0.3 49.2,0.7 73.4,4.7 25.4,4.3 49.9,12.6 74.1,21.3 110.5,39.9 2246.6,1226.3 2348.7,1284.6 L 7562.5,6507.2 C 7463.2,6348.3 5122.7,5337 4980.3,5290.6 Z"
         inkscape:connector-curvature="0"
         style="fill:#222222" />
    </g>
    <g
       id="g4354"
       style="fill:#ffffff"
       transform="matrix(0.96083216,0,0,0.96083216,28.773444,35.001432)">
      <g
         transform="matrix(0.04433383,0,0,0.04433383,281.16799,718.29436)"
         id="g4186"
         style="fill:#ffffff">
        <path
           style="fill:#ffffff"
           inkscape:connector-curvature="0"
           d="m 2758.5,4710.2 c -0.6,-4.9 -1.1,-9.8 -0.1,-14.6 3.1,-14.8 19.3,-22.7 34.1,-25.7 17.6,-3.6 35.9,-3.4 53.4,0.5 5.4,1.2 10.9,2.9 14.7,6.9 2.9,3.1 4.5,7.2 5.8,11.3 7.9,24 11.7,55 7.8,84.1 -0.7,5 -1.6,10.1 -4,14.6 -7.8,14 -27.5,15.6 -43,11.8 -26.5,-6.6 -50,-24.5 -63.3,-48.4 0.1,-0.1 -3.8,-27.2 -5.4,-40.5 z"
           id="path4188" />
      </g>
      <g
         transform="matrix(0.04433383,0,0,0.04433383,281.16799,718.29436)"
         id="g4190"
         style="fill:#ffffff">
        <path
           style="fill:#ffffff"
           inkscape:connector-curvature="0"
           d="m 3029.2,4862.9 c -27.9,5.2 -50.6,15.4 -76.3,27.3 -11.8,5.5 -24.3,12.8 -28.7,25.1 -2,5.8 -2,12.1 -1.4,18.2 2,19.2 11.6,39.4 29.5,46.7 7.6,3.1 16,3.7 24.3,4.1 26,1.5 52,3.1 78,4.6 9,0.5 19,0.8 26.2,-4.6 5.6,-4.2 8.4,-11 11,-17.5 4.3,-10.8 8.7,-21.8 9.3,-33.4 1.3,-27.2 -17.9,-50.6 -36,-71 -2.2,-2.5 -4.6,-5.1 -7.8,-5.8 -2.6,-0.6 -5.2,0.1 -7.7,0.8 -6.9,1.9 -13.7,3.7 -20.4,5.5"
           id="path4192" />
      </g>
      <g
         transform="matrix(0.04433383,0,0,0.04433383,281.16799,718.29436)"
         id="g4194"
         style="fill:#ffffff">
        <path
           style="fill:#ffffff"
           inkscape:connector-curvature="0"
           d="m 3048.6,5065 c -12,4.3 -21.5,15.1 -24.2,27.6 -2.7,12.5 1.4,26.2 10.6,35.1 7.2,7 16.8,10.8 26.3,14 23.8,7.8 49.5,12.1 73.9,6.5 2.9,-0.7 5.9,-1.5 8.2,-3.5 2.2,-2 3.5,-4.9 4.5,-7.7 10.5,-29.3 5,-63.8 -13.9,-88.4 -1.5,-1.9 -3.2,-3.9 -5.6,-4.3 -1.4,-0.2 -2.7,0.1 -4.1,0.5 -24,6.1 -47.9,12.2 -71.9,18.3 l -3.8,1.9 z"
           id="path4196" />
      </g>
      <g
         transform="matrix(0.04433383,0,0,0.04433383,281.16799,718.29436)"
         id="g4198"
         style="fill:#ffffff">
        <path
           style="fill:#ffffff"
           inkscape:connector-curvature="0"
           d="m 3094.6,5270.8 c 1.5,1.9 3,3.9 3.6,6.3 1.5,6.2 -4.1,11.7 -9.1,15.7 -15.5,12.2 -30.9,24.5 -46.4,36.7 -14.8,11.7 -31.9,24.1 -50.6,21.7 -10.9,-1.4 -21,-8.2 -26.4,-17.8 -5.4,-9.6 -5.9,-21.8 -1.4,-31.8 4.2,-9.5 12.4,-16.6 20.5,-23.2 11.2,-9 22.7,-17.6 34.3,-26 15.5,-11.1 32,-22.2 50.9,-24.7 -0.8,6.6 1.2,13.6 5.4,18.7 0,-0.1 11.6,14.6 19.2,24.4 z"
           id="path4200" />
      </g>
      <g
         transform="matrix(0.04433383,0,0,0.04433383,281.16799,718.29436)"
         id="g4206"
         style="fill:#ffffff">
        <path
           style="fill:#ffffff"
           inkscape:connector-curvature="0"
           d="m 3095.4,4686.5 c 2.5,2.1 21.9,3.9 25.1,4.5 24.8,4.5 29.9,17.2 55.1,18.9 10.8,0.8 22.3,1.1 31.8,-4.1 9.5,-5.2 26.6,-42.3 32.1,-51.7 8.7,-15.1 10.5,-12 13.6,-30.6 0.8,-4.9 1.6,-34.3 -0.6,-35.7 -19.4,-12.5 -34,-9.2 -55.3,-18 -2,-0.8 -4,-1.7 -6.2,-1.4 -1.6,0.3 -3.1,1.2 -4.4,2.2 -34.1,24.3 -56,46.6 -78.5,81.9 -0.2,0.2 -15.2,31.9 -12.7,34 z"
           id="path4208" />
      </g>
    </g>
  </g>
</svg>
